<svg id="레이어_1" data-name="레이어 1" xmlns="http://www.w3.org/2000/svg" viewBox="0 0 445.6 108.25"><defs><style>.cls-1{fill:#b3b3b3;}</style></defs><path class="cls-1" d="M77.73,69.24c-3.42-.27-8.64-.45-12.42-.45H59.73v9c0,3.6-.18,7.38-.45,11.25a29.64,29.64,0,0,1-2,9c-1.17,2.88-2.61,4.23-4.14,4.23-2.52,0-3.69-4.5-3.69-13.41V69c-4.86.18-9.71.36-14.12.54v6.84a100.16,100.16,0,0,1-.63,11.34,30.43,30.43,0,0,1-1.89,9c-1.17,2.79-2.61,4.23-4.14,4.23-2.43,0-3.69-4.5-3.69-13.41V70.32a28.44,28.44,0,0,0-7.38,1.62,5,5,0,0,1-2,.54,6.84,6.84,0,0,1-2.34-.54,37.24,37.24,0,0,1-9.63-5.85c-1.17-1-1.35-1.53-1.35-2.34s.81-1.35,2.7-1A81.86,81.86,0,0,0,18.7,63.84c11.34,0,27.27-.18,39.05-1,4-.27,6.66-.54,8-1.26A9.13,9.13,0,0,1,70,60.24a38.44,38.44,0,0,1,9.45,1.26c2.25.54,3.33,1.89,3.33,3.69C82.77,68.07,80.43,69.42,77.73,69.24ZM42.19,56.42C32.46,56.42,22,50.74,22,40.58c0-9,8.61-14.89,17.39-15.92.69-.35,1.12-.86,1.12-1.29a1.41,1.41,0,0,0-.95-1.47c-1-.43-1.2-.77-1.2-1.2,0-.77.77-1.29,2.49-1.29a16,16,0,0,1,5.68,1.12,1.78,1.78,0,0,1,1.38,1.72c0,.77-.6,1.55-1.72,2.58C54.67,26.21,62.59,32,62.59,40.58,62.59,50.74,52,56.42,42.19,56.42ZM32,40.5c0,5.59,5,9,10.58,9S53,46.09,53,40.5s-4.82-9.13-10.5-9.13S32,34.9,32,40.5Z"/><path class="cls-1" d="M163.77,60.06c-4.5.09-8.19.27-12.33.45v17a101.65,101.65,0,0,1-.63,13c-.36,3.06-2.07,12-6.39,12-2.16,0-3.42-3.51-3.42-13V70.47c-10.71,4-24.39,8.57-35.55,9.56-3.24.27-5.39,0-7-1.08-2.25-1.53-3.05-3.41-3.05-9.8V58.36c-1-1.44-2.79-2.43-5.67-3.24-1.26-.36-1.9-1-1.9-2,0-1.17,2.08-1.8,3.42-1.8a99.48,99.48,0,0,1,10.54.54,43.4,43.4,0,0,0,4.31.63,83.3,83.3,0,0,0,11.43-.81,1.06,1.06,0,0,0,1-.9A115.58,115.58,0,0,0,118.86,39a102.58,102.58,0,0,0-10.25.63,19.06,19.06,0,0,0-5.76,1.44,4.09,4.09,0,0,1-1.62.36,5.38,5.38,0,0,1-1.8-.36,32.52,32.52,0,0,1-8.09-4.77,2.65,2.65,0,0,1-1.26-2.25c0-.9.81-1.26,2.6-1a71.23,71.23,0,0,0,9.72.54c5.58,0,10.88-.18,15.38-.54,1.8-.27,3.15-1.26,4.68-1.35a23.27,23.27,0,0,1,7,.9c1.35.36,2,1.08,2,2.16a4.16,4.16,0,0,1-1.26,2.79,2.31,2.31,0,0,0-.63,1.08,66.08,66.08,0,0,1-3.33,13c2.43.63,3.6,1.71,3.6,3.42s-1.26,2.61-3.78,2.7c-6.84.27-13.85.63-19.79,1.17a11.08,11.08,0,0,0-.18,1.8v9.53c0,1.08.54,1.62,2,1.62,9.27-.09,22.41-2.44,32.94-4.69V26.48c-1-2.7-3.87-4.68-6.93-5.76-1.26-.45-1.8-.9-1.8-2,0-1.43,2.34-2.06,4.86-2.06a33,33,0,0,1,6.66.89,29.14,29.14,0,0,1,5.58,1.62c1.62.72,2.43,1.71,2.43,3.06,0,1.62-.36,4-.36,5.94V54.75l2.79-.27a3.47,3.47,0,0,0,2-.81,6.21,6.21,0,0,1,3.24-1.8A23,23,0,0,1,166,52c2.25.36,3,2,3,3.87C169,58.62,166.38,60.06,163.77,60.06Z"/><path class="cls-1" d="M246.93,67.15c-3.42-.27-8.64-.45-12.42-.45-5,0-11.16.09-17.28.27l-.09,10.45q0,5.67-.54,11.34a30.94,30.94,0,0,1-2,9c-1.08,2.79-2.52,4.14-4.14,4.14-2.43,0-3.6-4.5-3.6-13.32V67.33c-4.14.18-7.92.45-11,.72a30.79,30.79,0,0,0-9.09,1.8,5,5,0,0,1-2,.54,6.84,6.84,0,0,1-2.34-.54A37.24,37.24,0,0,1,172.86,64c-1.17-1-1.35-1.53-1.35-2.34s.81-1.35,2.7-1a81.86,81.86,0,0,0,13.68,1.08c11.34,0,27.27-.18,39.06-1,4.05-.27,6.66-.54,8-1.26a9.13,9.13,0,0,1,4.23-1.35,38.44,38.44,0,0,1,9.45,1.26C250.89,60,252,61.3,252,63.1,252,66,249.63,67.33,246.93,67.15ZM233.79,28.73a10,10,0,0,0-1.17,1.08c-3.78,4-8.28,6.47-13.14,9.71l4.77,1.17a18.16,18.16,0,0,0,7.38.63,9.45,9.45,0,0,1,4.77.45,22.78,22.78,0,0,1,6.3,3.06c1.71,1.26,2.52,2.25,2.52,3.87A3.17,3.17,0,0,1,242,51.94a13.17,13.17,0,0,1-3.78-.63l-25.92-7.56a122.91,122.91,0,0,1-31.05,11.43,8.24,8.24,0,0,1-1.44.09c-1,0-1.53-.54-1.53-1.71,0-.72.54-1.35,1.8-1.8,13-4.77,27.63-12,38.34-22.13-10.71-.18-17.28.54-20.34,2.16a4.35,4.35,0,0,1-1.89.54,6.41,6.41,0,0,1-2.61-.54A34.7,34.7,0,0,1,184.83,27a2.55,2.55,0,0,1-1.35-2.16c0-.9.81-1.44,2.52-1.17a99.91,99.91,0,0,0,12.06.72c6.57,0,14.13-.27,23-.81,1.44-.09,4.05-1.17,5.13-1.17a32.54,32.54,0,0,1,7.38.81c1.89.45,2.88,1.08,2.88,2.16S235.5,27.56,233.79,28.73Z"/><path class="cls-1" d="M358.43,61.67c-3.42-.27-8.64-.45-12.42-.45-11.43-.09-28.62.45-38.61,1.35a30.79,30.79,0,0,0-9.09,1.8,5,5,0,0,1-2,.54,6.84,6.84,0,0,1-2.34-.54,37.24,37.24,0,0,1-9.63-5.85c-1.17-1-1.35-1.53-1.35-2.34s.81-1.35,2.7-1a81.86,81.86,0,0,0,13.68,1.08c5.58,0,12.24,0,19.08-.18v-6c-8.46-1.35-15.84-6.3-15.84-14,0-8.37,8.82-13.23,18.18-13.95a1.51,1.51,0,0,0,.54-1.26c0-.54-.27-1-1.17-1.53a1.42,1.42,0,0,1-.9-1.35c0-.63.9-1.26,2.34-1.26a17.6,17.6,0,0,1,6.12,1.17,1.8,1.8,0,0,1,1.44,1.8,4.65,4.65,0,0,1-1.53,2.7c8.46,1.26,15.93,6,15.93,13.68,0,7.38-6.93,12.24-15,13.77v5.94c3.42-.18,6.84-.27,9.9-.54,4.05-.27,6.66-.54,8-1.26a9.13,9.13,0,0,1,4.23-1.35,38.44,38.44,0,0,1,9.45,1.26c2.25.54,3.33,1.89,3.33,3.69C363.47,60.5,361.13,61.85,358.43,61.67ZM322.34,94.88c-3.87,2.7-10.17,4.86-14.76,5.67a7.57,7.57,0,0,1-6-1.08c-2.61-1.8-3.42-4.14-3.42-7.65V86.33a10.66,10.66,0,0,0-4.95-2.7c-1.17-.36-1.8-.9-1.8-1.71,0-1.17,1-1.89,3.06-2.07a72.27,72.27,0,0,1,8.64.18,13.41,13.41,0,0,1,3.6.72c1.71.09,3.87,0,4.68-.45a1.48,1.48,0,0,0,.72-1.08,44.87,44.87,0,0,0,0-5,37.72,37.72,0,0,0-5.58.18c-1.08.09-3.78,1.26-4.86,1.26a3.79,3.79,0,0,1-1.62-.36,26.77,26.77,0,0,1-6-4.14,2.78,2.78,0,0,1-1.17-2.16c0-.81.81-1.35,2.52-1.08a45.56,45.56,0,0,0,6.84.54,86.83,86.83,0,0,0,8.82-.27,11.28,11.28,0,0,0,2.16-.45,5,5,0,0,1,2.16-.63,25.16,25.16,0,0,1,4.95.54,7.35,7.35,0,0,1,2.61-.63,56.54,56.54,0,0,1,6.75.36,21.41,21.41,0,0,1,4.5.9,37.32,37.32,0,0,0,5.49-.18c1-.09,2.88-.9,3.87-.9a29.76,29.76,0,0,1,7.11.72,2.22,2.22,0,0,1,1.89,2.34,3.86,3.86,0,0,1-1.08,2.88,2.78,2.78,0,0,0-1,1.44,146.93,146.93,0,0,1-2.61,16.2c2.07.72,3.24,1.71,3.24,3.69s-1.62,3-4.59,2.88c-3.87-.09-7.56-.09-12.24.09-.72,3.06-2.34,4.5-4.32,4.5s-3-2-3.24-6L325,73.64a8.65,8.65,0,0,0-2-1.44,6.87,6.87,0,0,1-.81.81,2.16,2.16,0,0,0-.63,1.08A40.51,40.51,0,0,1,320,80.21c1.71.45,2.7,1.26,2.7,2.7,0,1.62-1.17,2.61-3,2.7-4.32.18-7.92.45-11.79.81a10.41,10.41,0,0,0-.09,1.53v3.42c0,.9.36,1.26,1.62,1.26A54.65,54.65,0,0,0,320.9,91a5.1,5.1,0,0,1,1.62-.27c1.17,0,1.71.54,1.71,1.35C324.23,93.26,323.6,94,322.34,94.88Zm1-66.15c-5.85,0-10.53,3.15-10.53,7.47,0,4.5,4.68,7.2,10.53,7.2,6,0,10.62-2.7,10.62-7.2C334,31.88,329.36,28.73,323.33,28.73Zm17.46,45.54c-2.07-.09-4,0-6.21.09l.09,16.83a22.49,22.49,0,0,0,4.68-.18,1.29,1.29,0,0,0,1.17-.9Z"/><path class="cls-1" d="M415.67,34.06a5.69,5.69,0,0,0-.9,1.53C407.3,52,395.26,61.7,375.1,71.42c-.54.27-3.44,1.24-3.44,0,0-.54.45-1.17,1.44-1.8,13.59-9,25.29-21,29.88-34.55a61.89,61.89,0,0,0-10,.54,14.24,14.24,0,0,0-4.68,1.26,4.37,4.37,0,0,1-1.8.54,5.33,5.33,0,0,1-1.89-.36,26.21,26.21,0,0,1-7.83-4.68c-.72-.63-1.17-1.08-1.17-1.71,0-.9.72-1.35,2-1.17a79.34,79.34,0,0,0,10.8.63c5.4,0,10.16-.09,14.21-.36a6,6,0,0,0,2.25-.63,4.45,4.45,0,0,1,2.16-.63,43.7,43.7,0,0,1,8.1.72c1.35.36,2,1,2,2A4.19,4.19,0,0,1,415.67,34.06Zm22.05,40.75a2.41,2.41,0,0,0-.72,1.44,86.54,86.54,0,0,1-2.34,14.22c2.43.81,3.6,1.71,3.6,3.69s-1.62,3.15-4.86,3.06c-8-.09-17.55,0-27.27.27-1,3.42-2.7,5-5,5s-3.51-2.16-3.87-6.57l-1.71-19.71a9.59,9.59,0,0,0-5.31-3.06c-1.26-.36-1.89-.9-1.89-1.89,0-1.17,2.34-2.16,3.87-2.16,3,0,6.12.18,9.18.45a14.43,14.43,0,0,1,4.5.9c6.66,0,13.41-.18,19.44-.72.81,0,2.79-.9,3.87-.9a40.31,40.31,0,0,1,8,.81c1.35.27,2.07,1,2.07,2.16A4.35,4.35,0,0,1,437.72,74.81ZM426.2,76.16c-6.57,0-13.41.18-19.8.54a10.33,10.33,0,0,0-.09,1.71l.18,12.6c6.48,0,13.14,0,18.36-.36a1.5,1.5,0,0,0,1.35-.81Zm1.62-49.5c-.9-2.79-3.69-4.95-6.93-5.94-1.17-.36-1.71-.9-1.71-2,0-1.43,2.34-2.06,4.86-2.06a32.3,32.3,0,0,1,6.57.89,29.14,29.14,0,0,1,5.58,1.62c1.62.72,2.43,1.71,2.43,3.06,0,1.62-.36,4.05-.36,5.94V46.28a76.93,76.93,0,0,1-.54,9.9c-1,7.11-3.24,10.17-6.12,10.17-2.52,0-3.78-2.88-3.78-9.54Z"/></svg>