<svg id="레이어_1" data-name="레이어 1" xmlns="http://www.w3.org/2000/svg" viewBox="0 0 468 424.8"><path d="M86.77,48.34c-4.32.09-8,.27-12,.45v18a101.65,101.65,0,0,1-.63,13c-.36,3.06-2.07,12-6.39,12-2.16,0-3.42-3.51-3.42-13v-23C54.38,59.73,39,65,29,65.87c-3.24.27-5.67-.09-7-1.17-2.61-2-3.51-4-3.51-8.72V34.26a9.63,9.63,0,0,0-5.85-3.87c-1.71-.45-2.34-1-2.34-1.8,0-1.17,2.16-2.25,4-2.25,7.2,0,12,.54,14,1.8,5.94.09,10-.36,12.5-2.25a7.28,7.28,0,0,1,3-1.08,22.37,22.37,0,0,1,6.93,0c3,.45,3.87,1.89,3.87,4.05,0,2.43-1.89,4-5,4.14-7,.18-12.23.36-20.33.81a12.85,12.85,0,0,0-.09,2.25V56c0,1.17.45,1.8,2,1.8,9.45-.18,23.22-3.71,33.3-6.23V15.76c-1-2.7-3.87-4.68-6.93-5.76-1.26-.45-1.8-.9-1.8-2C55.64,6.58,58,6,60.5,6a33.18,33.18,0,0,1,6.66.9,29.14,29.14,0,0,1,5.58,1.62c1.62.72,2.43,1.71,2.43,3.06,0,1.62-.36,4-.36,5.94V42.94a21.89,21.89,0,0,0,2.42-.18,3.41,3.41,0,0,0,2-.81,6.21,6.21,0,0,1,3.24-1.8,23,23,0,0,1,6.57.09c2.25.36,3,2,3,3.87C92,46.9,89.38,48.34,86.77,48.34Z"/><path d="M174.55,48.16c-4.5.09-8.28.18-12.42.45V66.79a101.65,101.65,0,0,1-.63,13c-.36,3.06-2.07,12-6.39,12-2.16,0-3.42-3.51-3.42-13V63c-10.26,2.61-18.79,4.18-33.47,6.4a18,18,0,0,0-6,1.44,3.64,3.64,0,0,1-2.16.72,4.17,4.17,0,0,1-1.71-.36,41.89,41.89,0,0,1-10.71-5.67,2.73,2.73,0,0,1-1.44-2.34c0-1,.9-1.44,2.61-1.26a94.25,94.25,0,0,0,14,.63c2-.09,5-.18,7.12-.27V51.76c-8.55-1.44-14.48-6.47-14.48-15.38C105.54,27,112.37,22,121.46,21a1.87,1.87,0,0,0,1-1.53c0-.63-.27-1.08-1.08-1.62-.63-.45-.9-.72-.9-1.35,0-.81.9-1.35,2.52-1.35a15.58,15.58,0,0,1,5.67,1.17c1,.45,1.53,1,1.53,1.8a4.75,4.75,0,0,1-1.53,3.06c8.45,1.53,14.38,6.38,14.38,15.2,0,8.46-5.3,13.22-13.12,15.11v10c7.82-.63,14-1.3,21.77-2.61V15.76c-1-2.7-3.87-4.68-6.93-5.76-1.26-.45-1.8-.9-1.8-2C143,6.58,145.3,6,147.82,6a33.18,33.18,0,0,1,6.66.9,29.14,29.14,0,0,1,5.58,1.62c1.62.72,2.43,1.71,2.43,3.06,0,1.62-.36,4-.36,5.94V42.85l2.88-.27a3.47,3.47,0,0,0,2-.81,6.21,6.21,0,0,1,3.24-1.8,23,23,0,0,1,6.57.09c2.25.36,3,2,3,3.87C179.77,46.72,177.16,48.16,174.55,48.16Zm-59.65-12c0,5.85,4.22,8.57,9.62,8.57s10-2.33,10-8.18-4.5-8.45-10-8.45S114.9,30.23,114.9,36.17Z"/><path d="M262,48.34c-4.32.09-8,.27-12,.45v18a101.65,101.65,0,0,1-.63,13c-.36,3.06-2.07,12-6.39,12-2.16,0-3.42-3.51-3.42-13v-23c-10,4-25.38,9.29-35.37,10.19-3.24.27-5.67-.09-7-1.17-2.6-2-3.5-4-3.5-8.72V34.26a9.63,9.63,0,0,0-5.85-3.87c-1.71-.45-2.34-1-2.34-1.8,0-1.17,2.16-2.25,4-2.25,7.2,0,12,.54,14,1.8,5.94.09,10-.36,12.5-2.25a7.28,7.28,0,0,1,3-1.08,22.37,22.37,0,0,1,6.93,0c3,.45,3.87,1.89,3.87,4.05,0,2.43-1.89,4-5,4.14-7,.18-12.23.36-20.33.81a12.85,12.85,0,0,0-.09,2.25V56c0,1.17.45,1.8,2,1.8,9.45-.18,23.22-3.71,33.3-6.23V15.76c-1-2.7-3.87-4.68-6.93-5.76-1.26-.45-1.8-.9-1.8-2,0-1.44,2.34-2.07,4.86-2.07a33.18,33.18,0,0,1,6.66.9,29.14,29.14,0,0,1,5.58,1.62c1.62.72,2.43,1.71,2.43,3.06,0,1.62-.36,4-.36,5.94V42.94a22.07,22.07,0,0,0,2.43-.18,3.47,3.47,0,0,0,2-.81,6.21,6.21,0,0,1,3.24-1.8,23,23,0,0,1,6.57.09c2.25.36,3,2,3,3.87C267.19,46.9,264.58,48.34,262,48.34Z"/><path d="M43.94,172.09l-.36,7.2c5.22-.09,10.44-.27,15.3-.54l.81-9.72a8.16,8.16,0,0,0-4.32-4c-.9-.45-1.35-.9-1.35-1.89s1.35-1.53,3.69-1.53a30,30,0,0,1,10.53,2.16,2.76,2.76,0,0,1,1.89,2.52,8.79,8.79,0,0,1-.45,2.34c-.36,1.35-.54,2.16-.63,2.52l-1.26,7c2.7-.18,4.59-.45,5.67-1.08a9.13,9.13,0,0,1,4.23-1.35A38.43,38.43,0,0,1,87.13,177c2.25.54,3.33,1.89,3.33,3.69,0,2.88-2.34,4.23-5,4.05-3.42-.27-8.63-.45-12.41-.45-11.43-.09-28.62.45-38.61,1.35a30.79,30.79,0,0,0-9.09,1.8,5,5,0,0,1-2,.54,6.84,6.84,0,0,1-2.34-.54,37.24,37.24,0,0,1-9.63-5.85c-1.17-1-1.35-1.53-1.35-2.34s.81-1.35,2.7-1a81.86,81.86,0,0,0,13.68,1.08h8.1l-.27-8.64A6.68,6.68,0,0,0,30,167.41c-1.26-.45-1.89-.9-1.89-1.89s2.16-1.8,4.59-1.8A36.32,36.32,0,0,1,42.05,165c1.89.45,2.61,1.71,2.16,4C44.12,169.57,44,170.92,43.94,172.09Zm6.21-11.61c-12,0-23-6.39-23-18.09,0-10.53,9.63-17.28,20.61-18.18a1.69,1.69,0,0,0-.18-3.15c-.72-.45-1-.72-1-1.26,0-.9,1-1.44,2.61-1.44A17.57,17.57,0,0,1,55,119.44a1.83,1.83,0,0,1,1.44,1.89,5,5,0,0,1-1.8,3.15c10.08,1.53,18.54,8,18.54,17.91C73.19,154.09,62.12,160.48,50.15,160.48Zm.27-28.89c-6.48,0-12.78,3.78-12.78,10.8s6.3,10.44,12.78,10.44,12.87-3.42,12.87-10.44S57,131.59,50.42,131.59Z"/><path d="M173,184.42c-3.42-.27-8.64-.45-12.42-.45-11.43-.09-28.62.45-38.6,1.35a30.79,30.79,0,0,0-9.09,1.8,5,5,0,0,1-2,.54,6.84,6.84,0,0,1-2.34-.54A37.24,37.24,0,0,1,99,181.27c-1.17-1-1.35-1.53-1.35-2.34s.81-1.35,2.7-1A81.86,81.86,0,0,0,114,179c4.86,0,10.53,0,16.47-.09l-.09-12.78a10,10,0,0,0-5.22-3.6c-1.26-.45-1.89-1-1.89-1.8,0-1.17,2.34-1.89,4.41-1.89a46.22,46.22,0,0,1,10.79,1.08c1.71.45,2.43,1.71,2.16,4q-.13,1.75-.27,3.24l-.63,11.52c4.68-.09,9.27-.36,13.32-.63s6.66-.54,8-1.26a9.13,9.13,0,0,1,4.23-1.35,38.44,38.44,0,0,1,9.45,1.26c2.25.54,3.33,1.89,3.33,3.69C178.06,183.25,175.72,184.6,173,184.42Zm-6.57-53.55c-1,12.51-3.24,23.31-7.29,32.76-1.35,3.06-2.88,4.68-4.59,4.68s-2.16-1.08-1.89-3.42c.63-4.86,1.26-10.8,1.62-16.92A174.18,174.18,0,0,1,127,152.83a11.46,11.46,0,0,0-5,1.53,4.74,4.74,0,0,1-2.07.72,4.58,4.58,0,0,1-1.8-.36,41.73,41.73,0,0,1-10.35-5.31c-1.08-.81-1.53-1.35-1.53-2.52,0-.9,1-1.35,2.7-1.17a91,91,0,0,0,13.32.54,275.73,275.73,0,0,0,32.3-3.33c.18-4,.18-7.92.18-11.7-7.83,0-15.84.45-22.41.9-3.86.27-6.65.81-8.36,1.71a3.43,3.43,0,0,1-2,.63,5.25,5.25,0,0,1-1.8-.45,35.16,35.16,0,0,1-8.64-5.31c-1-.9-1.44-1.44-1.44-2.25,0-1.08.81-1.53,2.52-1.26a77.47,77.47,0,0,0,11.43.9c8.81.09,19.61-.36,29-1a8.57,8.57,0,0,0,2.61-.45,5.57,5.57,0,0,1,2.61-.63,29,29,0,0,1,7.74.9c1.71.45,2.52,1.26,2.52,2.34S167.89,129.43,166.45,130.87Z"/><path d="M85.42,260.91c-3.77-.27-9.08-.54-12.68-.54-12.87,0-28.08.45-38.25,1.35-4.5.36-7.11.81-9.45,2a4,4,0,0,1-1.8.45,6.84,6.84,0,0,1-2.34-.54,38.42,38.42,0,0,1-9.45-5.85c-1.08-1-1.44-1.44-1.44-2.34s.81-1.26,2.7-.9A83.13,83.13,0,0,0,26.3,255.6c10.08,0,25.92-.36,36.81-.9a119.94,119.94,0,0,0,2.34-20.06,199.76,199.76,0,0,0-21.06.54c-3.87.36-6.39.81-8.37,1.71a5,5,0,0,1-2,.54,4.81,4.81,0,0,1-1.8-.45,32.74,32.74,0,0,1-9.18-5.31,2.77,2.77,0,0,1-1.26-2.16c0-.9.81-1.26,2.61-1.08a96.08,96.08,0,0,0,11.7.72c8.73,0,19.17-.18,27.9-.81a6.68,6.68,0,0,0,2.34-.45,6.74,6.74,0,0,1,2.61-.72,31.87,31.87,0,0,1,7.92.9c1.52.36,2.33,1.17,2.33,2.43s-.62,2.07-1.88,3.42a63.82,63.82,0,0,1-7,20.33,12.26,12.26,0,0,0,4.41-1A9.68,9.68,0,0,1,79,251.91a30.81,30.81,0,0,1,8.1,1.08c2.7.63,3.33,1.89,3.33,3.69A4.5,4.5,0,0,1,85.42,260.91ZM73.54,303.49c-12,0-23.3.09-34.73.27-6.21.09-8.91-2.25-8.91-7.47v-7.65a10.1,10.1,0,0,0-5.31-2.88q-1.89-.54-1.89-1.89c0-.81.9-1.71,2.79-1.71,3.42,0,7.2.18,10.71.54a7.39,7.39,0,0,1,1.62.27,15.16,15.16,0,0,0,3.69.54c6.39,0,14-.18,19.89-.63a.79.79,0,0,0,.81-.63c.18-1.53.27-5.32.27-7.93-6.21-.09-14.13.09-19.53.54A19,19,0,0,0,36.74,276a4.4,4.4,0,0,1-1.71.45,4.81,4.81,0,0,1-1.8-.45,33.35,33.35,0,0,1-8.1-4.86,2.37,2.37,0,0,1-1.17-2c0-.81.63-1.08,2.16-.9,3.24.36,6.48.54,10.17.63,8.1.09,17.46-.09,25-.63,1.53-.09,2.88-1,4.23-1a34.62,34.62,0,0,1,8.19.9,2,2,0,0,1,1.71,2,3.24,3.24,0,0,1-1.26,2.7,3.86,3.86,0,0,0-1.26,1.71,36.86,36.86,0,0,1-1.8,7.84c2.61.63,3.69,1.62,3.69,3.42s-1.44,2.7-3.42,2.7c-10.71.09-22.23.36-30.6.63a11.48,11.48,0,0,0-.09,1.71v5.4a1.19,1.19,0,0,0,1.35,1.35c4.68.09,10.44.09,14.76-.09,3.33-.18,5.85-.72,7.56-1.71a7.37,7.37,0,0,1,3.6-.9,35.15,35.15,0,0,1,7.2.63c2.6.54,3.69,1.8,3.69,4.05C78.86,302.14,76.61,303.49,73.54,303.49Z"/><path d="M141,244.65a4.15,4.15,0,0,0-1.08,1.62c-4,5.9-6.21,10-10.52,15.55l3.14,3a12.48,12.48,0,0,0,6.75,3.78,5.5,5.5,0,0,1,3.24,2.16c2.88,3.69,4.23,6.84,4.23,8.91,0,2.61-1.17,4-3.24,4-1.53,0-2.88-.81-4.5-2.43l-13.67-14.49c-6.84,7.74-15.21,13.58-24.48,18.8a5.65,5.65,0,0,1-1.95.69,1,1,0,0,1-1-1c0-1,.63-1.35,1.53-2.07,11.52-9.27,23-22.84,28.26-37.42a59.86,59.86,0,0,0-10.26.54,15.56,15.56,0,0,0-4.77,1.44,3.11,3.11,0,0,1-1.62.45,4.84,4.84,0,0,1-1.89-.45,30.91,30.91,0,0,1-7.92-4.77,2.19,2.19,0,0,1-1.08-1.8c0-.9.54-1.35,1.8-1.17a72.25,72.25,0,0,0,10.44.63c4.86,0,10.08-.09,15.12-.45,1.35-.09,3.68-1.35,4.41-1.35a38.29,38.29,0,0,1,8.54,1q2.16.41,2.16,1.89A3.89,3.89,0,0,1,141,244.65Zm33.57,19.6c-4.5.09-8.19.27-12.33.45v18.36a101.65,101.65,0,0,1-.63,13c-.36,3.06-2.07,12-6.39,12-2.16,0-3.42-3.51-3.42-13.05V231.76c-1-2.7-3.87-4.68-6.93-5.76-1.26-.45-1.8-.9-1.8-2,0-1.44,2.34-2.07,4.86-2.07a33.18,33.18,0,0,1,6.66.9,29.14,29.14,0,0,1,5.58,1.62c1.62.72,2.43,1.71,2.43,3.06,0,1.62-.36,4-.36,5.94v25.47l2.79-.27a3.47,3.47,0,0,0,2-.81,6.21,6.21,0,0,1,3.24-1.8,23,23,0,0,1,6.57.09c2.25.36,3,2,3,3.87C179.77,262.81,177.16,264.25,174.55,264.25Z"/><path d="M260.62,267.67c-3.42-.27-8.64-.45-12.42-.45-11.43-.09-28.62.45-38.61,1.35a30.79,30.79,0,0,0-9.09,1.8,5,5,0,0,1-2,.54,6.73,6.73,0,0,1-2.33-.54,37.24,37.24,0,0,1-9.63-5.85c-1.17-1-1.35-1.53-1.35-2.34s.81-1.35,2.7-1a81.86,81.86,0,0,0,13.68,1.08c11.33,0,27.26-.18,39-1,4.05-.27,6.66-.54,8-1.26a9.13,9.13,0,0,1,4.23-1.35,38.44,38.44,0,0,1,9.45,1.26c2.25.54,3.33,1.89,3.33,3.69C265.66,266.5,263.32,267.85,260.62,267.67Zm-14.31-11.25c-9.63.27-23,.72-33.84,1-6.12.18-8.82-2.43-8.82-7.47v-4.32a10.92,10.92,0,0,0-5.4-3.15c-1.35-.45-1.79-.9-1.79-1.71,0-1.08,1.52-1.89,3.15-1.89,3.41,0,7.37.09,11,.45l1.44.27a17.38,17.38,0,0,0,3.78.36c6.3,0,13.68-.18,19.53-.63.63-.09,1-.36,1.08-.9a44.77,44.77,0,0,0,.27-5.4c-6.39,0-15,.27-20.7.72a12.5,12.5,0,0,0-5.4,1.26,3.65,3.65,0,0,1-1.71.36,4,4,0,0,1-1.8-.36,29.78,29.78,0,0,1-7.73-4.59,2.67,2.67,0,0,1-1.27-2.16c0-.81.81-1.26,2.43-1.08a79.58,79.58,0,0,0,9.54.63c8.1,0,18.27-.09,25.38-.54,1.17-.09,3.24-1.17,4.23-1.17a39,39,0,0,1,7.83.72c1.35.27,2,1,2,2s-.63,2-1.89,3.24a27.11,27.11,0,0,1-2.52,7.2c2.43.54,3.69,1.53,3.69,3.06s-1.62,2.7-3.87,2.7c-10.53.09-20.43.36-30.33.72a8.73,8.73,0,0,0-.09,1.53v2.7a1.42,1.42,0,0,0,1.53,1.53c4.14.09,10.62,0,15.12-.27a17,17,0,0,0,6.57-1.35,8.54,8.54,0,0,1,3.51-1.17,32,32,0,0,1,7.2.36,3.09,3.09,0,0,1,2.79,3.24C251.17,254.8,249.28,256.33,246.31,256.42Zm2.25,47.43c-12,0-22.86.09-34.29.27-6.21.09-8.91-2.25-8.91-7.47v-5.4a10.71,10.71,0,0,0-5.31-2.88c-1.26-.36-1.88-.9-1.88-1.8s1-1.8,2.87-1.8a106.25,106.25,0,0,1,10.62.54,7.39,7.39,0,0,1,1.62.27,15.16,15.16,0,0,0,3.69.54c6.39,0,13.5-.18,19.08-.63.45,0,1-.36,1-.72a43.16,43.16,0,0,0,.27-5.31c-6.21-.09-13.5.09-18.9.54a19,19,0,0,0-6.21,1.17,4.4,4.4,0,0,1-1.71.45,4.81,4.81,0,0,1-1.8-.45,33.35,33.35,0,0,1-8.1-4.86,2.37,2.37,0,0,1-1.17-2c0-.81.63-1.08,2.17-.9,3.23.36,6.47.45,10.16.54,8.1.09,16.83-.09,24.39-.54,1.53-.09,2.88-1,4.23-1a34.62,34.62,0,0,1,8.19.9,2,2,0,0,1,1.71,2A3.24,3.24,0,0,1,249,278a3.94,3.94,0,0,0-1.26,1.71,25.37,25.37,0,0,1-1.8,5.4c2.61.63,3.69,1.53,3.69,3.33,0,1.53-1.8,2.7-3.78,2.7-9.81.09-21.24.36-29.61.63a11.48,11.48,0,0,0-.09,1.71v3.06c0,1,.45,1.44,1.26,1.44,4.59.09,10.08.09,14.4-.09,3.33-.18,5.67-.54,7.56-1.62a7.37,7.37,0,0,1,3.6-.9,35.15,35.15,0,0,1,7.2.63c2.43.54,3.69,1.8,3.69,4C253.87,302.41,251.62,303.85,248.56,303.85Z"/><path d="M85.42,375c-3.42-.27-8.63-.45-12.41-.45-11.43-.09-28.62.45-38.61,1.35a30.79,30.79,0,0,0-9.09,1.8,5,5,0,0,1-2,.54,6.84,6.84,0,0,1-2.34-.54,37.24,37.24,0,0,1-9.63-5.85c-1.17-1-1.35-1.53-1.35-2.34s.81-1.35,2.7-1a81.86,81.86,0,0,0,13.68,1.08c5.58,0,12.24,0,19.08-.18v-6C37,362,29.63,357,29.63,349.39c0-8.37,8.82-13.23,18.18-13.95a1.51,1.51,0,0,0,.54-1.26c0-.54-.27-1-1.17-1.53a1.42,1.42,0,0,1-.9-1.35c0-.63.9-1.26,2.34-1.26a17.6,17.6,0,0,1,6.12,1.17,1.8,1.8,0,0,1,1.44,1.8,4.65,4.65,0,0,1-1.53,2.7c8.46,1.26,15.93,6,15.93,13.68,0,7.38-6.93,12.24-15,13.77v5.94c3.42-.18,6.84-.27,9.9-.54,4-.27,6.66-.54,8-1.26A9.13,9.13,0,0,1,77.69,366a38.43,38.43,0,0,1,9.44,1.26c2.25.54,3.33,1.89,3.33,3.69C90.46,373.78,88.12,375.13,85.42,375ZM49.34,408.16c-3.87,2.7-10.17,4.86-14.76,5.67a7.57,7.57,0,0,1-6-1.08c-2.61-1.8-3.42-4.14-3.42-7.65v-5.49a10.66,10.66,0,0,0-4.95-2.7c-1.17-.36-1.8-.9-1.8-1.71,0-1.17,1-1.89,3.06-2.07a72.27,72.27,0,0,1,8.64.18,13.41,13.41,0,0,1,3.6.72c1.71.09,3.87,0,4.68-.45a1.48,1.48,0,0,0,.72-1.08,44.87,44.87,0,0,0,0-4.95,37.72,37.72,0,0,0-5.58.18c-1.08.09-3.78,1.26-4.86,1.26a3.79,3.79,0,0,1-1.62-.36,26.77,26.77,0,0,1-6-4.14,2.78,2.78,0,0,1-1.17-2.16c0-.81.81-1.35,2.52-1.08a45.56,45.56,0,0,0,6.84.54,86.83,86.83,0,0,0,8.82-.27,11.28,11.28,0,0,0,2.16-.45,5,5,0,0,1,2.16-.63,25.16,25.16,0,0,1,5,.54,7.35,7.35,0,0,1,2.61-.63,56.54,56.54,0,0,1,6.75.36,21.41,21.41,0,0,1,4.5.9,37.32,37.32,0,0,0,5.49-.18c1-.09,2.88-.9,3.87-.9a29.76,29.76,0,0,1,7.11.72,2.22,2.22,0,0,1,1.88,2.34,3.86,3.86,0,0,1-1.08,2.88,2.7,2.7,0,0,0-1,1.44,146.93,146.93,0,0,1-2.61,16.2c2.07.72,3.23,1.71,3.23,3.69s-1.62,3-4.58,2.88c-3.87-.09-7.56-.09-12.24.09-.72,3.06-2.34,4.5-4.32,4.5s-3-2-3.24-6L52,386.92a8.65,8.65,0,0,0-2-1.44,6.87,6.87,0,0,1-.81.81,2.16,2.16,0,0,0-.63,1.08A40.51,40.51,0,0,1,47,393.49c1.71.45,2.7,1.26,2.7,2.7,0,1.62-1.17,2.61-3,2.7-4.32.18-7.92.45-11.79.81a10.41,10.41,0,0,0-.09,1.53v3.42c0,.9.36,1.26,1.62,1.26a54.65,54.65,0,0,0,11.43-1.62,5.1,5.1,0,0,1,1.62-.27c1.17,0,1.71.54,1.71,1.35C51.23,406.54,50.6,407.26,49.34,408.16Zm1-66.15c-5.85,0-10.53,3.15-10.53,7.47,0,4.5,4.68,7.2,10.53,7.2,6,0,10.62-2.7,10.62-7.2C61,345.16,56.36,342,50.33,342Zm17.46,45.54c-2.07-.09-4,0-6.21.09l.09,16.83a22.49,22.49,0,0,0,4.68-.18,1.29,1.29,0,0,0,1.17-.9Z"/><path d="M144.4,350.2a3.42,3.42,0,0,0-.9,1.53c-6.12,17.46-18.8,32.13-39,43.65a8.4,8.4,0,0,1-2.55.79c-.9,0-1-1-1-1a6.11,6.11,0,0,1,1.93-3c13-10.26,25.11-26.19,28.71-41.22a75.21,75.21,0,0,0-11.16.63,16.24,16.24,0,0,0-4.59,1.26,4.35,4.35,0,0,1-1.89.54A5.33,5.33,0,0,1,112,353a31.64,31.64,0,0,1-8-4.68,2.19,2.19,0,0,1-1.08-1.8c0-.9.63-1.35,2-1.17A75.79,75.79,0,0,0,115,346c6.66,0,12.15-.18,16.46-.45a5.89,5.89,0,0,0,2.17-.54,4.36,4.36,0,0,1,2.06-.63,39.7,39.7,0,0,1,8.46.81q1.89.4,1.89,1.89A3.92,3.92,0,0,1,144.4,350.2Zm23.76-8.73v49.32a101.65,101.65,0,0,1-.63,13c-.36,3.06-2.07,12-6.39,12-2.16,0-3.42-3.51-3.42-13.05V339.76c-1-2.7-3.87-4.68-6.93-5.76-1.26-.45-1.8-.9-1.8-2,0-1.44,2.34-2.07,4.86-2.07a33.18,33.18,0,0,1,6.66.9,29.14,29.14,0,0,1,5.58,1.62c1.62.72,2.43,1.71,2.43,3.06C168.52,337.15,168.16,339.49,168.16,341.47Z"/><path d="M260.62,377.46c-3.42-.27-8.64-.45-12.42-.45-11.43-.09-28.62.45-38.61,1.35a30.79,30.79,0,0,0-9.09,1.8,5,5,0,0,1-2,.54,6.73,6.73,0,0,1-2.33-.54,37.24,37.24,0,0,1-9.63-5.85c-1.17-1-1.35-1.53-1.35-2.34s.81-1.35,2.7-1a81.86,81.86,0,0,0,13.68,1.08c11.33,0,27.26-.18,39-1,4.05-.27,6.66-.54,8-1.26a9.13,9.13,0,0,1,4.23-1.35,38.44,38.44,0,0,1,9.45,1.26c2.25.54,3.33,1.89,3.33,3.69C265.66,376.29,263.32,377.64,260.62,377.46ZM248.2,362.88c-10.8,0-24,.09-35.37.36-4.32.09-7.2-.72-8.73-2.7-1.26-1.44-1.8-3.6-1.8-6.3l-.09-10c-1.17-1.71-3.14-3-6.11-3.78-1.26-.36-2.08-.9-2.08-1.89,0-1.26,2.88-2.16,5-2.16a73.71,73.71,0,0,1,11.51.81c2,.36,2.79,1.62,2.43,3.87a22.36,22.36,0,0,0-.18,3.42v10.7a2,2,0,0,0,2.25,2.25c4.68.09,13.95-.09,18.72-.27a9.92,9.92,0,0,0,5-1.44,9.55,9.55,0,0,1,4.32-1.62,28.34,28.34,0,0,1,7.29.36c2.34.45,3.51,1.62,3.51,3.87C253.87,361.17,251.17,362.88,248.2,362.88Zm.27,47.62c-13.32,0-24.57.09-33.84.36-3.87.09-6.48-.54-8-1.89-1.71-1.44-2.52-3.87-2.61-7.11l-.09-8.74c-1.26-1.53-3.77-2.61-6.65-3.24-1.17-.27-1.81-.81-1.81-1.71,0-1.26,3-2.34,5-2.34a70.58,70.58,0,0,1,11.69.81c2,.27,2.79,1.71,2.52,4-.09,1.26-.18,2.43-.18,3.42v8.65a2,2,0,0,0,2.16,2.34c4.23.18,10.26,0,14.58-.27,3.78-.18,5.94-.54,8.28-1.62a13.17,13.17,0,0,1,4.14-1.35,28.55,28.55,0,0,1,7.11.54c2.52.54,3.6,1.71,3.6,4.05C254.32,409,251.53,410.5,248.47,410.5Z"/><path d="M329.54,349.48c-1.26,4.59-4.15,9.09-6.49,13.5l5.13,5.58c1.8,2,2.51,2.15,5,3a5.63,5.63,0,0,1,3,2.07,34.25,34.25,0,0,1,4,7.11,8.43,8.43,0,0,1,.63,3.06,3.58,3.58,0,0,1-3.51,3.78c-1.8,0-3.06-1-4.68-2.88l-13-15.92c-5.4,8.1-13.27,14.76-21.64,20.43-1,.72-3,2-3,2-1,.53-3,1-2-1a11.84,11.84,0,0,1,2-2.25c9-9,19.82-24.67,22.79-38.35a10.25,10.25,0,0,0-4.86-4.68c-1.35-.72-2-1.08-2-2,0-1.08,1.17-1.89,3.51-1.89a11.27,11.27,0,0,1,2.16.18,40.36,40.36,0,0,1,11.61,3.33,2.64,2.64,0,0,1,1.8,2.43A8.13,8.13,0,0,1,329.54,349.48Zm42.11,22.77c-4.5.09-8.19.27-12.33.45v18.36a101.65,101.65,0,0,1-.63,13c-.36,3.06-2.07,12-6.39,12-2.16,0-3.42-3.51-3.42-13.05V339.76c-1-2.7-3.87-4.68-6.93-5.76-1.26-.45-1.8-.9-1.8-2,0-1.44,2.34-2.07,4.86-2.07a33.18,33.18,0,0,1,6.66.9,29.14,29.14,0,0,1,5.58,1.62c1.62.72,2.43,1.71,2.43,3.06,0,1.62-.36,4-.36,5.94v25.47l2.79-.27a3.47,3.47,0,0,0,2-.81,6.21,6.21,0,0,1,3.24-1.8,23,23,0,0,1,6.57.09c2.25.36,3,2,3,3.87C376.87,370.81,374.26,372.25,371.65,372.25Z"/><path d="M456.07,362c-4.32.09-8,.27-12,.45a67.66,67.66,0,0,1-.54,9.27c-1,7.11-3.24,10.17-6.12,10.17-2.43,0-3.69-4.7-3.78-10.91a160,160,0,0,1-36.36,8.74,10,10,0,0,1-2.78.09c-2.7-.36-4.5-1.89-5.58-4.68a13.37,13.37,0,0,1-.54-4.05V361.9c-1.08-1.35-3.7-2.25-6.58-3.06-1.17-.36-1.8-.81-1.8-2,0-1,1.89-1.89,3.33-1.89,3.69,0,7.92.09,10.8.36A26.71,26.71,0,0,1,398,356a63.93,63.93,0,0,0,11.25-.72,1.06,1.06,0,0,0,1-.9,46.34,46.34,0,0,0,.36-8.18,111.84,111.84,0,0,0-11.34.63A15.25,15.25,0,0,0,394.6,348a3.43,3.43,0,0,1-1.71.54,5.16,5.16,0,0,1-2.25-.54,30.58,30.58,0,0,1-7.47-4.32,2.4,2.4,0,0,1-1.17-2.07c0-1,.81-1.44,2.61-1.26,3.15.36,6.21.45,9.72.54a141.5,141.5,0,0,0,15.21-.54c1.8-.09,3.15-1.17,4.68-1.35a30.9,30.9,0,0,1,7,.9,2.22,2.22,0,0,1,2,2.25A3.56,3.56,0,0,1,422,344.9a3,3,0,0,0-.72,1,49.78,49.78,0,0,1-3.24,9.17c2.34.63,3.69,1.53,3.69,3.06,0,1.71-1.44,2.79-4,2.88l-19.25,1.17a10.19,10.19,0,0,0-.18,2.07v5.48c0,1.08.63,1.53,1.71,1.53a171.28,171.28,0,0,0,33.66-4V339.94c-.9-2.79-3.69-4.95-6.93-5.94-1.17-.36-1.71-.9-1.71-2,0-1.44,2.34-2.07,4.86-2.07a32.47,32.47,0,0,1,6.57.9,29.14,29.14,0,0,1,5.58,1.62c1.62.72,2.43,1.71,2.43,3.06,0,1.62-.36,4.05-.36,5.94v15.12a22.07,22.07,0,0,0,2.43-.18,3.47,3.47,0,0,0,2-.81,6.21,6.21,0,0,1,3.24-1.8,23,23,0,0,1,6.57.09c2.25.36,3,2,3,3.87C461.29,360.55,458.68,362,456.07,362Zm-12.15,28.62a3.08,3.08,0,0,0-.72,1.44,97.62,97.62,0,0,1-2.43,11.79c2.25.72,3.6,1.8,3.6,3.69s-1.62,3.15-4.86,3.06c-8-.09-16.65,0-26.37.27-1,3.42-2.7,5-5,5s-3.6-2.16-4.05-6.57l-1.62-17.28a10,10,0,0,0-5.31-3.06c-1.26-.36-1.89-.9-1.89-1.89s2.07-2.16,3.87-2.16c3,0,6.12.18,9.18.45a14.43,14.43,0,0,1,4.5.9c5.85,0,12.6-.18,18.72-.72.81,0,2.79-.9,3.87-.9a40.31,40.31,0,0,1,8,.81c1.35.27,2.07,1,2.07,2.16A4.35,4.35,0,0,1,443.92,390.61ZM432.4,392c-6.57,0-12.69.18-19.08.54a10.33,10.33,0,0,0-.09,1.71l.27,10.17c5.85.09,12.33,0,17.55-.36a1.42,1.42,0,0,0,1.35-.9Z"/></svg>