<svg id="레이어_1" data-name="레이어 1" xmlns="http://www.w3.org/2000/svg" viewBox="0 0 455.73 108.25"><path d="M77.42,61.7c-3.42-.27-8.63-.45-12.41-.45-11.43-.09-28.62.45-38.61,1.35a30.79,30.79,0,0,0-9.09,1.8,5,5,0,0,1-2,.54A6.84,6.84,0,0,1,13,64.4a37.24,37.24,0,0,1-9.63-5.85C2.19,57.56,2,57,2,56.21s.81-1.35,2.7-1A81.86,81.86,0,0,0,18.39,56.3c5.58,0,12.24,0,19.08-.18v-6c-8.46-1.35-15.84-6.3-15.84-14,0-8.37,8.82-13.23,18.18-13.95a1.51,1.51,0,0,0,.54-1.26c0-.54-.27-1-1.17-1.53a1.42,1.42,0,0,1-.9-1.35c0-.63.9-1.26,2.34-1.26A17.6,17.6,0,0,1,46.74,18a1.8,1.8,0,0,1,1.44,1.8,4.65,4.65,0,0,1-1.53,2.7c8.46,1.26,15.93,6,15.93,13.68,0,7.38-6.93,12.24-15,13.77v5.94c3.42-.18,6.84-.27,9.9-.54,4-.27,6.66-.54,8-1.26a9.13,9.13,0,0,1,4.23-1.35A38.43,38.43,0,0,1,79.13,54c2.25.54,3.33,1.89,3.33,3.69C82.46,60.53,80.12,61.88,77.42,61.7ZM41.34,94.91c-3.87,2.7-10.17,4.86-14.76,5.67a7.57,7.57,0,0,1-6-1.08c-2.61-1.8-3.42-4.14-3.42-7.65V86.36a10.66,10.66,0,0,0-4.95-2.7c-1.17-.36-1.8-.9-1.8-1.71,0-1.17,1-1.89,3.06-2.07a72.27,72.27,0,0,1,8.64.18,13.41,13.41,0,0,1,3.6.72c1.71.09,3.87,0,4.68-.45a1.48,1.48,0,0,0,.72-1.08,44.87,44.87,0,0,0,0-5,37.72,37.72,0,0,0-5.58.18c-1.08.09-3.78,1.26-4.86,1.26A3.79,3.79,0,0,1,19,75.38a26.77,26.77,0,0,1-6-4.14,2.78,2.78,0,0,1-1.17-2.16c0-.81.81-1.35,2.52-1.08a45.56,45.56,0,0,0,6.84.54A86.83,86.83,0,0,0,30,68.27a11.28,11.28,0,0,0,2.16-.45,5,5,0,0,1,2.16-.63,25.16,25.16,0,0,1,5,.54,7.35,7.35,0,0,1,2.61-.63,56.54,56.54,0,0,1,6.75.36,21.41,21.41,0,0,1,4.5.9,37.32,37.32,0,0,0,5.49-.18c1-.09,2.88-.9,3.87-.9A29.76,29.76,0,0,1,69.6,68a2.22,2.22,0,0,1,1.88,2.34,3.86,3.86,0,0,1-1.08,2.88,2.7,2.7,0,0,0-1,1.44,146.93,146.93,0,0,1-2.61,16.2c2.07.72,3.23,1.71,3.23,3.69s-1.62,3-4.58,2.88c-3.87-.09-7.56-.09-12.24.09-.72,3.06-2.34,4.5-4.32,4.5s-3-2-3.24-6L44,73.67a8.65,8.65,0,0,0-2-1.44,6.87,6.87,0,0,1-.81.81,2.16,2.16,0,0,0-.63,1.08A40.51,40.51,0,0,1,39,80.24c1.71.45,2.7,1.26,2.7,2.7,0,1.62-1.17,2.61-3,2.7-4.32.18-7.92.45-11.79.81A10.41,10.41,0,0,0,26.85,88V91.4c0,.9.36,1.26,1.62,1.26A54.65,54.65,0,0,0,39.9,91a5.1,5.1,0,0,1,1.62-.27c1.17,0,1.71.54,1.71,1.35C43.23,93.29,42.6,94,41.34,94.91Zm1-66.15c-5.85,0-10.53,3.15-10.53,7.47,0,4.5,4.68,7.2,10.53,7.2,6,0,10.62-2.7,10.62-7.2C53,31.91,48.36,28.76,42.33,28.76ZM59.79,74.3c-2.07-.09-4,0-6.21.09l.09,16.83A22.49,22.49,0,0,0,58.35,91a1.29,1.29,0,0,0,1.17-.9Z"/><path d="M136.4,37a3.42,3.42,0,0,0-.9,1.53c-6.12,17.46-18.8,32.13-39,43.65a8.4,8.4,0,0,1-2.55.79c-.9,0-1-1-1-1a6.11,6.11,0,0,1,1.93-3c13-10.26,25.11-26.19,28.71-41.22a75.21,75.21,0,0,0-11.16.63,16.24,16.24,0,0,0-4.59,1.26,4.35,4.35,0,0,1-1.89.54,5.33,5.33,0,0,1-1.89-.36,31.64,31.64,0,0,1-8-4.68,2.19,2.19,0,0,1-1.08-1.8c0-.9.63-1.35,2-1.17a75.79,75.79,0,0,0,10.08.63c6.66,0,12.15-.18,16.46-.45a5.89,5.89,0,0,0,2.17-.54,4.36,4.36,0,0,1,2.06-.63,39.7,39.7,0,0,1,8.46.81q1.89.4,1.89,1.89A3.92,3.92,0,0,1,136.4,37Zm23.76-8.73V77.54a101.65,101.65,0,0,1-.63,13c-.36,3.06-2.07,12-6.39,12-2.16,0-3.42-3.51-3.42-13V26.51c-1-2.7-3.87-4.68-6.93-5.76-1.26-.45-1.8-.9-1.8-2,0-1.44,2.34-2.07,4.86-2.07a33.18,33.18,0,0,1,6.66.9,29.14,29.14,0,0,1,5.58,1.62c1.62.72,2.43,1.71,2.43,3.06C160.52,23.9,160.16,26.24,160.16,28.22Z"/><path d="M252.62,64.21c-3.42-.27-8.64-.45-12.42-.45-11.43-.09-28.62.45-38.61,1.35a30.79,30.79,0,0,0-9.09,1.8,5,5,0,0,1-2,.54,6.73,6.73,0,0,1-2.33-.54,37.24,37.24,0,0,1-9.63-5.85c-1.17-1-1.35-1.53-1.35-2.34s.81-1.35,2.7-1a81.86,81.86,0,0,0,13.68,1.08c11.33,0,27.26-.18,39-1,4.05-.27,6.66-.54,8-1.26a9.13,9.13,0,0,1,4.23-1.35,38.44,38.44,0,0,1,9.45,1.26c2.25.54,3.33,1.89,3.33,3.69C257.66,63,255.32,64.39,252.62,64.21ZM240.2,49.63c-10.8,0-24,.09-35.37.36-4.32.09-7.2-.72-8.73-2.7-1.26-1.44-1.8-3.6-1.8-6.3l-.09-10c-1.17-1.71-3.14-3-6.11-3.78-1.26-.36-2.08-.9-2.08-1.89,0-1.26,2.88-2.16,5-2.16a73.71,73.71,0,0,1,11.51.81c2,.36,2.79,1.62,2.43,3.87a22.36,22.36,0,0,0-.18,3.42V42A2,2,0,0,0,207,44.23c4.68.09,13.95-.09,18.72-.27a9.92,9.92,0,0,0,5-1.44,9.55,9.55,0,0,1,4.32-1.62,28.34,28.34,0,0,1,7.29.36c2.34.45,3.51,1.62,3.51,3.87C245.87,47.92,243.17,49.63,240.2,49.63Zm.27,47.62c-13.32,0-24.57.09-33.84.36-3.87.09-6.48-.54-8-1.89-1.71-1.44-2.52-3.87-2.61-7.11l-.09-8.74c-1.26-1.53-3.77-2.61-6.65-3.24-1.17-.27-1.81-.81-1.81-1.71,0-1.26,3-2.34,5-2.34a70.58,70.58,0,0,1,11.69.81c2,.27,2.79,1.71,2.52,4-.09,1.26-.18,2.43-.18,3.42v8.65a2,2,0,0,0,2.16,2.34c4.23.18,10.26,0,14.58-.27,3.78-.18,5.94-.54,8.28-1.62a13.17,13.17,0,0,1,4.14-1.35,28.55,28.55,0,0,1,7.11.54c2.52.54,3.6,1.71,3.6,4C246.32,95.72,243.53,97.25,240.47,97.25Z"/><path d="M321.54,36.23c-1.26,4.59-4.15,9.09-6.49,13.5l5.13,5.58c1.8,2,2.51,2.15,5,3a5.63,5.63,0,0,1,3,2.07,34.25,34.25,0,0,1,4,7.11,8.43,8.43,0,0,1,.63,3.06,3.58,3.58,0,0,1-3.51,3.78c-1.8,0-3.06-1-4.68-2.88l-13-15.92c-5.4,8.1-13.27,14.76-21.64,20.43-1,.72-3,2-3,2-1,.52-3,1-2-1a11.84,11.84,0,0,1,2-2.25c9-9,19.82-24.67,22.79-38.35a10.25,10.25,0,0,0-4.86-4.68c-1.35-.72-2-1.08-2-2,0-1.08,1.17-1.89,3.51-1.89a11.27,11.27,0,0,1,2.16.18,40.36,40.36,0,0,1,11.61,3.33,2.64,2.64,0,0,1,1.8,2.43A8.13,8.13,0,0,1,321.54,36.23ZM363.65,59c-4.5.09-8.19.27-12.33.45V77.81a101.65,101.65,0,0,1-.63,13c-.36,3.06-2.07,12-6.39,12-2.16,0-3.42-3.51-3.42-13V26.51c-1-2.7-3.87-4.68-6.93-5.76-1.26-.45-1.8-.9-1.8-2,0-1.44,2.34-2.07,4.86-2.07a33.18,33.18,0,0,1,6.66.9,29.14,29.14,0,0,1,5.58,1.62c1.62.72,2.43,1.71,2.43,3.06,0,1.62-.36,4-.36,5.94V53.69l2.79-.27a3.47,3.47,0,0,0,2-.81,6.21,6.21,0,0,1,3.24-1.8,23,23,0,0,1,6.57.09c2.25.36,3,2,3,3.87C368.87,57.56,366.26,59,363.65,59Z"/><path d="M448.07,48.74c-4.32.09-8,.27-12,.45a67.66,67.66,0,0,1-.54,9.27c-1,7.11-3.24,10.17-6.12,10.17-2.43,0-3.69-4.7-3.78-10.91a160.54,160.54,0,0,1-36.36,8.74,10,10,0,0,1-2.78.09c-2.7-.36-4.5-1.89-5.58-4.68a13.37,13.37,0,0,1-.54-4V48.65c-1.08-1.35-3.7-2.25-6.58-3.06-1.17-.36-1.8-.81-1.8-2,0-1,1.89-1.89,3.33-1.89,3.69,0,7.92.09,10.8.36a26.71,26.71,0,0,1,3.87.63A63.93,63.93,0,0,0,401.27,42a1.06,1.06,0,0,0,1-.9,46.34,46.34,0,0,0,.36-8.18,111.84,111.84,0,0,0-11.34.63,15.25,15.25,0,0,0-4.68,1.17,3.43,3.43,0,0,1-1.71.54,5.16,5.16,0,0,1-2.25-.54,30.58,30.58,0,0,1-7.47-4.32A2.4,2.4,0,0,1,374,28.32c0-1,.81-1.44,2.61-1.26,3.15.36,6.21.45,9.72.54a141.5,141.5,0,0,0,15.21-.54c1.8-.09,3.15-1.17,4.68-1.35a30.9,30.9,0,0,1,7,.9,2.22,2.22,0,0,1,2,2.25A3.56,3.56,0,0,1,414,31.65a3,3,0,0,0-.72,1A49.78,49.78,0,0,1,410,41.81c2.34.63,3.69,1.53,3.69,3.06,0,1.71-1.44,2.79-4,2.88l-19.25,1.17a10.19,10.19,0,0,0-.18,2.07v5.48c0,1.08.63,1.53,1.71,1.53a171.28,171.28,0,0,0,33.66-4V26.69c-.9-2.79-3.69-5-6.93-5.94-1.17-.36-1.71-.9-1.71-2,0-1.44,2.34-2.07,4.86-2.07a32.47,32.47,0,0,1,6.57.9A29.14,29.14,0,0,1,434,19.22c1.62.72,2.43,1.71,2.43,3.06,0,1.62-.36,4-.36,5.94V43.34a22.07,22.07,0,0,0,2.43-.18,3.47,3.47,0,0,0,2-.81,6.21,6.21,0,0,1,3.24-1.8,23,23,0,0,1,6.57.09c2.25.36,3,2,3,3.87C453.29,47.3,450.68,48.74,448.07,48.74ZM435.92,77.36a3.08,3.08,0,0,0-.72,1.44,97.62,97.62,0,0,1-2.43,11.79c2.25.72,3.6,1.8,3.6,3.69s-1.62,3.15-4.86,3.06c-8-.09-16.65,0-26.37.27-1,3.42-2.7,5-5,5s-3.6-2.16-4.05-6.57L394.43,78.8a10,10,0,0,0-5.31-3.06c-1.26-.36-1.89-.9-1.89-1.89s2.07-2.16,3.87-2.16c3,0,6.12.18,9.18.45a14.43,14.43,0,0,1,4.5.9c5.85,0,12.6-.18,18.72-.72.81,0,2.79-.9,3.87-.9a40.31,40.31,0,0,1,8,.81c1.35.27,2.07,1,2.07,2.16A4.35,4.35,0,0,1,435.92,77.36ZM424.4,78.71c-6.57,0-12.69.18-19.08.54a10.33,10.33,0,0,0-.09,1.71l.27,10.17c5.85.09,12.33,0,17.55-.36a1.42,1.42,0,0,0,1.35-.9Z"/></svg>