<svg id="레이어_1" data-name="레이어 1" xmlns="http://www.w3.org/2000/svg" viewBox="0 0 173.6 108.25"><defs><style>.cls-1{fill:#b3b3b3;}</style></defs><path class="cls-1" d="M35.94,75.34l-.36,7.2c5.22-.09,10.44-.27,15.3-.54l.81-9.72a8.16,8.16,0,0,0-4.32-4c-.9-.45-1.35-.9-1.35-1.89s1.35-1.53,3.69-1.53a30,30,0,0,1,10.53,2.16,2.76,2.76,0,0,1,1.89,2.52,8.79,8.79,0,0,1-.45,2.34c-.36,1.35-.54,2.16-.63,2.52l-1.26,7c2.7-.18,4.59-.45,5.67-1.08A9.13,9.13,0,0,1,69.69,79a38.43,38.43,0,0,1,9.44,1.26c2.25.54,3.33,1.89,3.33,3.69,0,2.88-2.34,4.23-5,4-3.42-.27-8.63-.45-12.41-.45-11.43-.09-28.62.45-38.61,1.35a30.79,30.79,0,0,0-9.09,1.8,5,5,0,0,1-2,.54A6.84,6.84,0,0,1,13,90.73a37.24,37.24,0,0,1-9.63-5.85C2.19,83.89,2,83.35,2,82.54s.81-1.35,2.7-1a81.86,81.86,0,0,0,13.68,1.08h8.1L26.22,74A6.68,6.68,0,0,0,22,70.66c-1.26-.45-1.89-.9-1.89-1.89S22.26,67,24.69,67a36.32,36.32,0,0,1,9.36,1.26c1.89.45,2.61,1.71,2.16,4C36.12,72.82,36,74.17,35.94,75.34Zm6.21-11.61c-12,0-23-6.39-23-18.09,0-10.53,9.63-17.28,20.61-18.18a1.69,1.69,0,0,0-.18-3.15c-.72-.45-1-.72-1-1.26,0-.9,1-1.44,2.61-1.44A17.57,17.57,0,0,1,47,22.69a1.83,1.83,0,0,1,1.44,1.89,5,5,0,0,1-1.8,3.15c10.08,1.53,18.54,8,18.54,17.91C65.19,57.34,54.12,63.73,42.15,63.73Zm.27-28.89c-6.48,0-12.78,3.78-12.78,10.8s6.3,10.44,12.78,10.44,12.87-3.42,12.87-10.44S49,34.84,42.42,34.84Z"/><path class="cls-1" d="M165,87.67c-3.42-.27-8.64-.45-12.42-.45-11.43-.09-28.62.45-38.6,1.35a30.79,30.79,0,0,0-9.09,1.8,5,5,0,0,1-2,.54,6.84,6.84,0,0,1-2.34-.54A37.24,37.24,0,0,1,91,84.52c-1.17-1-1.35-1.53-1.35-2.34s.81-1.35,2.7-1A81.86,81.86,0,0,0,106,82.27c4.86,0,10.53,0,16.47-.09l-.09-12.78a10,10,0,0,0-5.22-3.6c-1.26-.45-1.89-1-1.89-1.8,0-1.17,2.34-1.89,4.41-1.89a46.22,46.22,0,0,1,10.79,1.08c1.71.45,2.43,1.71,2.16,4q-.13,1.75-.27,3.24l-.63,11.52c4.68-.09,9.27-.36,13.32-.63s6.66-.54,8-1.26a9.13,9.13,0,0,1,4.23-1.35,38.44,38.44,0,0,1,9.45,1.26c2.25.54,3.33,1.89,3.33,3.69C170.06,86.5,167.72,87.85,165,87.67Zm-6.57-53.55c-1,12.51-3.24,23.31-7.29,32.76-1.35,3.06-2.88,4.68-4.59,4.68s-2.16-1.08-1.89-3.42c.63-4.86,1.26-10.8,1.62-16.92A174.18,174.18,0,0,1,119,56.08a11.46,11.46,0,0,0-5,1.53,4.74,4.74,0,0,1-2.07.72,4.58,4.58,0,0,1-1.8-.36,41.73,41.73,0,0,1-10.35-5.31c-1.08-.81-1.53-1.35-1.53-2.52,0-.9,1-1.35,2.7-1.17a91,91,0,0,0,13.32.54,275.73,275.73,0,0,0,32.3-3.33c.18-4,.18-7.92.18-11.7-7.83,0-15.84.45-22.41.9-3.86.27-6.65.81-8.36,1.71a3.43,3.43,0,0,1-2,.63,5.25,5.25,0,0,1-1.8-.45A35.16,35.16,0,0,1,103.56,32c-1-.9-1.44-1.44-1.44-2.25,0-1.08.81-1.53,2.52-1.26a77.47,77.47,0,0,0,11.43.9c8.81.09,19.61-.36,29-1a8.57,8.57,0,0,0,2.61-.45,5.57,5.57,0,0,1,2.61-.63,29,29,0,0,1,7.74.9c1.71.45,2.52,1.26,2.52,2.34S159.89,32.68,158.45,34.12Z"/></svg>