<svg id="레이어_1" data-name="레이어 1" xmlns="http://www.w3.org/2000/svg" viewBox="0 0 384.53 108.25"><path d="M40.47,42.52a3.1,3.1,0,0,0-1,1.53c-2,5.49-4.59,6.8-8,12l1.89,2.79c1.71,2.61,3.06,4,5.85,4.86a4.37,4.37,0,0,1,2.6,2.61,26.47,26.47,0,0,1,2.07,5.76,11.06,11.06,0,0,1,.18,2.43c0,2.25-1.07,3.24-3,3.24-1.17,0-2.52-1-4.14-3.33L27.7,61.2C22.48,67.77,16.56,72.73,8.1,78.67a17.42,17.42,0,0,1-3.45,2c-.9,0-1.53.37-1.53-.8,0-.54.36-1.08,1.44-2.25C14.82,66.52,23.83,57,28.33,43.6A55.26,55.26,0,0,0,21,44a12.09,12.09,0,0,0-3.51,1,5.92,5.92,0,0,1-2.16.72,4.55,4.55,0,0,1-2.25-.54A28,28,0,0,1,6.46,41c-1-.81-1.35-1.35-1.35-2.07s.63-1.26,2-1.08a90.43,90.43,0,0,0,10,.54,108.61,108.61,0,0,0,11-.45,6.9,6.9,0,0,0,2.34-.54,4.45,4.45,0,0,1,2.16-.63,33.56,33.56,0,0,1,7.37.81c1.45.27,2.17.9,2.17,1.89A4.46,4.46,0,0,1,40.47,42.52ZM59.1,33.3V75.6a95.66,95.66,0,0,1-.54,11.34c-.81,7.38-3.15,10.62-6.12,10.62-1.88,0-3-3.15-3-11.7V57.78A5.53,5.53,0,0,0,48,58a6.65,6.65,0,0,0-2.43,1,3.53,3.53,0,0,1-1.88.72,4.57,4.57,0,0,1-1.9-.45A21.2,21.2,0,0,1,36,55.44a2.7,2.7,0,0,1-1.16-2.25c0-.63.81-1,2.25-.9a61.29,61.29,0,0,0,7,.18c1.9,0,3.7-.09,5.32-.18V31.68c-.91-2.43-3.33-4.14-6.12-5.13-1.09-.36-1.45-.81-1.45-1.8,0-1.26,2.25-1.8,4.59-1.8A30.58,30.58,0,0,1,57,25.11c1.62.72,2.34,1.62,2.34,2.88S59.1,31.23,59.1,33.3Zm16.47-5.49V77.94a113.75,113.75,0,0,1-.45,12.33C74.22,99,72,102.78,69,102.78c-2.43,0-3.51-4.14-3.51-13.59V25.65c-1.17-2.34-3.51-4-6.66-5.13a1.72,1.72,0,0,1-1.35-1.89c0-1,1.8-1.7,5-1.7a30.94,30.94,0,0,1,11.25,2.42,3.07,3.07,0,0,1,2.25,2.88C75.93,23.31,75.57,26.1,75.57,27.81Z"/><path d="M106,30.69c.81-.45,1.26-.81,1.26-1.53a1.71,1.71,0,0,0-1-1.71c-.81-.54-1.08-.81-1.08-1.44,0-.9.81-1.35,2.34-1.35a15.53,15.53,0,0,1,6.12,1.26c1.08.45,1.44,1,1.44,1.71a5,5,0,0,1-1.8,3.33c8.91,1.53,15.48,7.83,15.48,16.74,0,10.35-8.82,17.19-19.8,17.19s-19.7-6.84-19.7-17.19C89.25,38.34,96.44,31.77,106,30.69Zm3.24,26.82c5.58,0,10.08-3.69,10.08-9.81s-4.5-9.9-10.08-9.9-10,3.78-10,9.9S103.64,57.51,109.22,57.51Zm42.94,40.41c-12.24,0-22.59.18-31.95.27-4,0-6.57-.45-8.1-1.71-1.71-1.53-2.52-4-2.52-7.29V80.82c-1.53-1.71-3.33-2.7-6.74-3.51-1.17-.27-1.71-.81-1.71-1.8s2.33-2.25,4.58-2.25A83.66,83.66,0,0,1,117.6,74c2.07.36,2.88,1.71,2.61,4a21.63,21.63,0,0,0-.27,3.33v8.82c0,1.44.72,2.16,2.25,2.25,4.14.09,8.1.09,12.24-.18,3.78-.27,6.57-.81,8.28-1.71a13.24,13.24,0,0,1,4.14-1.44,31.68,31.68,0,0,1,7.47.45c2.52.54,3.6,1.8,3.6,4.23C157.92,96.39,154.86,97.92,152.16,97.92Zm11.7-44.64c-4.5.09-8.19.27-12.33.45v4.41A79.83,79.83,0,0,1,151,68.76c-1.08,7.29-3.15,11.16-6.39,11.16-2.34,0-3.51-3.42-3.51-10.89V26.91c-.9-2.79-3.69-4.95-6.93-5.94-1.17-.36-1.71-.9-1.71-2,0-1.44,2.34-2.06,4.86-2.06a32.3,32.3,0,0,1,6.57.89,29.14,29.14,0,0,1,5.58,1.62c1.62.72,2.43,1.71,2.43,3.06,0,1.62-.36,4.05-.36,5.94V48l2.79-.27a3.47,3.47,0,0,0,2-.81,6.21,6.21,0,0,1,3.24-1.8,23,23,0,0,1,6.57.09c2.25.36,3,2,3,3.87C169.08,51.84,166.47,53.28,163.86,53.28Z"/><path d="M246.93,60.12c-3.42-.27-8.64-.45-12.42-.45-11.43-.09-28.62.45-38.61,1.35a30.79,30.79,0,0,0-9.09,1.8,5,5,0,0,1-2,.54,6.84,6.84,0,0,1-2.34-.54A37.24,37.24,0,0,1,172.86,57c-1.17-1-1.35-1.53-1.35-2.34s.81-1.35,2.7-1a81.86,81.86,0,0,0,13.68,1.08c11.34,0,27.27-.18,39.06-1,4.05-.27,6.66-.54,8-1.26a9.13,9.13,0,0,1,4.23-1.35,38.44,38.44,0,0,1,9.45,1.26c2.25.54,3.33,1.89,3.33,3.69C252,59,249.63,60.3,246.93,60.12Zm-14.49-12.6c-9.63.18-22.05.54-32.58.9-4.5.18-6.93-.45-8.91-2.79-1.26-1.44-1.71-3.6-1.71-6.3V30.78a8.64,8.64,0,0,0-5.4-4.05c-1.89-.63-2.52-1.08-2.52-2,0-1.17,2.43-2.16,4.23-2.16a54.39,54.39,0,0,1,9.63.72,10.56,10.56,0,0,1,3.33,1c5.94.09,13.05-.09,18.72-.54,4-.36,6.3-2.79,8.46-2.88a40.81,40.81,0,0,1,9,.36c2.43.54,3.06,1.89,3.06,3.69,0,2.7-2.16,4.23-5.58,4.23-10.26,0-21.69.36-32.31.81a20.41,20.41,0,0,0-.09,2.52v7.92c0,1.53.63,2.34,2.25,2.34,4.41.09,10.08,0,14.94-.36a13.09,13.09,0,0,0,6.12-1.53,7.49,7.49,0,0,1,3.24-1.17,31.15,31.15,0,0,1,8.19.09c2.52.45,3.42,1.71,3.42,3.78C237.93,45.9,235.5,47.43,232.44,47.52ZM235,98.91c-12,0-23.76.09-35.19.27-6.21.09-8.91-2.25-8.91-7.47V85.5a11,11,0,0,0-5.31-2.79c-1.26-.36-1.89-.81-1.89-1.8s1.35-1.8,3-1.8c3.42,0,7.11.09,10.53.36a7.39,7.39,0,0,1,1.62.27,15.16,15.16,0,0,0,3.69.54c6.39,0,13.95-.09,20.16-.63a.89.89,0,0,0,.9-.63,40.9,40.9,0,0,0,.18-6c-6.21-.09-14.22.09-19.62.54a19.33,19.33,0,0,0-6.21,1.08,4.4,4.4,0,0,1-1.71.45,4.81,4.81,0,0,1-1.8-.45,32.9,32.9,0,0,1-8.1-4.77,2.37,2.37,0,0,1-1.17-2c0-.81.63-1.08,2.16-.9,3.24.36,6.48.54,10.17.63,8.1.09,17.55-.09,25.11-.63,1.53-.09,2.88-1,4.23-1a34.62,34.62,0,0,1,8.19.9,2,2,0,0,1,1.71,2,3.24,3.24,0,0,1-1.26,2.7,3.15,3.15,0,0,0-1.26,1.71,33.17,33.17,0,0,1-1.8,6.21c2.61.63,3.69,1.35,3.69,3.15s-1.71,2.7-3.69,2.7c-10.71.09-22.23.36-30.6.63a11.48,11.48,0,0,0-.09,1.71v4c0,1,.45,1.44,1.26,1.44,4.68.09,10.53.09,14.85-.09,3.33-.18,6.3-.63,8-1.62a7.37,7.37,0,0,1,3.6-.9,45.4,45.4,0,0,1,7.29.54c2.7.45,3.6,2.07,3.6,3.87C240.27,97.2,238,98.91,235,98.91Z"/><path d="M290.68,89.71q-3.49-1.5-3.49-3.19a6.88,6.88,0,0,1,1.2-3.69c.8-1.27,1.66-1.9,2.59-1.9a4.71,4.71,0,0,1,3.09,1.7,26.39,26.39,0,0,0,3.69,3.29,6.57,6.57,0,0,0,3.89,1.2,11.51,11.51,0,0,0,6.19-1.8,13,13,0,0,0,4.64-5.09,16,16,0,0,0,1.74-7.58,18.3,18.3,0,0,0-2.79-10.37,8.66,8.66,0,0,0-7.58-4.19A14.22,14.22,0,0,0,297.36,60a1.47,1.47,0,0,1-.69.2,1.83,1.83,0,0,1-1.2-.4,1,1,0,0,1-.4-1,6.85,6.85,0,0,1,3.79-4.59A33.83,33.83,0,0,0,307.69,48,11,11,0,0,0,311,40a8.64,8.64,0,0,0-2.39-6.13,7.88,7.88,0,0,0-6-2.55,10.22,10.22,0,0,0-6.43,1.9,22.16,22.16,0,0,0-4.44,4.69c-.8,1.13-1.33,1.69-1.6,1.69a1.88,1.88,0,0,1-1.29-.75,2.22,2.22,0,0,1-.7-1.54q0-1.8,2.19-4.84a19.11,19.11,0,0,1,6.69-5.44,23.1,23.1,0,0,1,11-2.39A15.52,15.52,0,0,1,317.91,28a10.29,10.29,0,0,1,4.19,8.48A13.76,13.76,0,0,1,319,44.72,18.71,18.71,0,0,1,309.64,51c-.2.14-.3.27-.3.4s.13.2.39.2a18.71,18.71,0,0,1,8.68,2,14.79,14.79,0,0,1,8.28,13.66,20.22,20.22,0,0,1-4.09,12.52,26.84,26.84,0,0,1-10.82,8.43,34.3,34.3,0,0,1-14.12,3A17.59,17.59,0,0,1,290.68,89.71Z"/><path d="M344.45,89.61a3.18,3.18,0,0,1-.7-2.19,11.54,11.54,0,0,1,1.39-2.8l1.1-1.89,25.44-45.49a1.63,1.63,0,0,0,.2-.6c0-.4-.44-.6-1.3-.6H347.24a8.56,8.56,0,0,0-4.14.85A9.88,9.88,0,0,0,340,40c-.07.14-.52.87-1.35,2.2s-1.71,2-2.64,2a1.14,1.14,0,0,1-1-.45,1.62,1.62,0,0,1-.35-1.05,9.13,9.13,0,0,1,.35-2c.23-.93.38-1.56.45-1.9l.4-2.09a82.41,82.41,0,0,0,1.79-10.37,1.24,1.24,0,0,1,.55-1.15,2.15,2.15,0,0,1,1.15-.35l3.49.55a46.61,46.61,0,0,0,5.78.55l14.57.1q14.67,0,18.16-.4c.26,0,.48.21.64.64a3.43,3.43,0,0,1,.25,1.25c0,.47-.66,1.73-2,3.79l-1.8,2.9L348.54,87.42c-1.07,2-1.77,3-2.1,3A2.5,2.5,0,0,1,344.45,89.61Z"/></svg>