<svg id="레이어_1" data-name="레이어 1" xmlns="http://www.w3.org/2000/svg" viewBox="0 0 262.4 108.25"><defs><style>.cls-1{fill:#b3b3b3;}</style></defs><path class="cls-1" d="M77.42,55.91c-3.77-.27-9.08-.54-12.68-.54-12.87,0-28.08.45-38.25,1.35-4.5.36-7.11.81-9.45,2a4,4,0,0,1-1.8.45,6.84,6.84,0,0,1-2.34-.54,38.42,38.42,0,0,1-9.45-5.85C2.37,51.77,2,51.32,2,50.42s.81-1.26,2.7-.9A83.13,83.13,0,0,0,18.3,50.6c10.08,0,25.92-.36,36.81-.9a119.94,119.94,0,0,0,2.34-20.06,199.76,199.76,0,0,0-21.06.54C32.52,30.54,30,31,28,31.89a5,5,0,0,1-2,.54,4.81,4.81,0,0,1-1.8-.45,32.74,32.74,0,0,1-9.18-5.31,2.77,2.77,0,0,1-1.26-2.16c0-.9.81-1.26,2.61-1.08a96.08,96.08,0,0,0,11.7.72c8.73,0,19.17-.18,27.9-.81a6.68,6.68,0,0,0,2.34-.45A6.74,6.74,0,0,1,61,22.17a31.87,31.87,0,0,1,7.92.9c1.52.36,2.33,1.17,2.33,2.43s-.62,2.07-1.88,3.42a63.82,63.82,0,0,1-7,20.33,12.26,12.26,0,0,0,4.41-1A9.68,9.68,0,0,1,71,46.91,30.81,30.81,0,0,1,79.13,48c2.7.63,3.33,1.89,3.33,3.69A4.5,4.5,0,0,1,77.42,55.91ZM65.54,98.49c-12,0-23.3.09-34.73.27-6.21.09-8.91-2.25-8.91-7.47V83.64a10.1,10.1,0,0,0-5.31-2.88q-1.89-.54-1.89-1.89c0-.81.9-1.71,2.79-1.71,3.42,0,7.2.18,10.71.54a7.39,7.39,0,0,1,1.62.27,15.16,15.16,0,0,0,3.69.54c6.39,0,14-.18,19.89-.63a.79.79,0,0,0,.81-.63c.18-1.53.27-5.32.27-7.93-6.21-.09-14.13.09-19.53.54A19,19,0,0,0,28.74,71a4.4,4.4,0,0,1-1.71.45,4.81,4.81,0,0,1-1.8-.45,33.35,33.35,0,0,1-8.1-4.86,2.37,2.37,0,0,1-1.17-2c0-.81.63-1.08,2.16-.9,3.24.36,6.48.54,10.17.63,8.1.09,17.46-.09,25-.63,1.53-.09,2.88-1,4.23-1a34.62,34.62,0,0,1,8.19.9,2,2,0,0,1,1.71,2,3.24,3.24,0,0,1-1.26,2.7,3.86,3.86,0,0,0-1.26,1.71,36.86,36.86,0,0,1-1.8,7.84c2.61.63,3.69,1.62,3.69,3.42s-1.44,2.7-3.42,2.7c-10.71.09-22.23.36-30.6.63a11.48,11.48,0,0,0-.09,1.71v5.4a1.19,1.19,0,0,0,1.35,1.35c4.68.09,10.44.09,14.76-.09,3.33-.18,5.85-.72,7.56-1.71a7.37,7.37,0,0,1,3.6-.9,35.15,35.15,0,0,1,7.2.63c2.6.54,3.69,1.8,3.69,4.05C70.86,97.14,68.61,98.49,65.54,98.49Z"/><path class="cls-1" d="M133,39.65a4.15,4.15,0,0,0-1.08,1.62c-4,5.9-6.21,10-10.52,15.55l3.14,3a12.48,12.48,0,0,0,6.75,3.78,5.5,5.5,0,0,1,3.24,2.16c2.88,3.69,4.23,6.84,4.23,8.91,0,2.61-1.17,4-3.24,4-1.53,0-2.88-.81-4.5-2.43L117.33,61.68c-6.84,7.74-15.21,13.58-24.48,18.8a5.65,5.65,0,0,1-1.95.69,1,1,0,0,1-1-1c0-1,.63-1.35,1.53-2.07,11.52-9.27,23-22.84,28.26-37.42a59.86,59.86,0,0,0-10.26.54,15.56,15.56,0,0,0-4.77,1.44,3.11,3.11,0,0,1-1.62.45,4.84,4.84,0,0,1-1.89-.45,30.91,30.91,0,0,1-7.92-4.77,2.19,2.19,0,0,1-1.08-1.8c0-.9.54-1.35,1.8-1.17a72.25,72.25,0,0,0,10.44.63c4.86,0,10.08-.09,15.12-.45,1.35-.09,3.68-1.35,4.41-1.35a38.29,38.29,0,0,1,8.54,1q2.16.4,2.16,1.89A3.89,3.89,0,0,1,133,39.65Zm33.57,19.6c-4.5.09-8.19.27-12.33.45V78.06a101.65,101.65,0,0,1-.63,13c-.36,3.06-2.07,12-6.39,12-2.16,0-3.42-3.51-3.42-13V26.76c-1-2.7-3.87-4.68-6.93-5.76-1.26-.45-1.8-.9-1.8-2,0-1.44,2.34-2.07,4.86-2.07a33.18,33.18,0,0,1,6.66.9,29.14,29.14,0,0,1,5.58,1.62c1.62.72,2.43,1.71,2.43,3.06,0,1.62-.36,4-.36,5.94V53.94l2.79-.27a3.47,3.47,0,0,0,2-.81,6.21,6.21,0,0,1,3.24-1.8,23,23,0,0,1,6.57.09c2.25.36,3,2,3,3.87C171.77,57.81,169.16,59.25,166.55,59.25Z"/><path class="cls-1" d="M252.62,62.67c-3.42-.27-8.64-.45-12.42-.45-11.43-.09-28.62.45-38.61,1.35a30.79,30.79,0,0,0-9.09,1.8,5,5,0,0,1-2,.54,6.73,6.73,0,0,1-2.33-.54,37.24,37.24,0,0,1-9.63-5.85c-1.17-1-1.35-1.53-1.35-2.34s.81-1.35,2.7-1a81.86,81.86,0,0,0,13.68,1.08c11.33,0,27.26-.18,39-1,4.05-.27,6.66-.54,8-1.26a9.13,9.13,0,0,1,4.23-1.35,38.44,38.44,0,0,1,9.45,1.26c2.25.54,3.33,1.89,3.33,3.69C257.66,61.5,255.32,62.85,252.62,62.67ZM238.31,51.42c-9.63.27-23,.72-33.84,1-6.12.18-8.82-2.43-8.82-7.47V40.62a10.92,10.92,0,0,0-5.4-3.15c-1.35-.45-1.79-.9-1.79-1.71,0-1.08,1.52-1.89,3.15-1.89,3.41,0,7.37.09,11,.45l1.44.27a17.38,17.38,0,0,0,3.78.36c6.3,0,13.68-.18,19.53-.63.63-.09,1-.36,1.08-.9a44.77,44.77,0,0,0,.27-5.4c-6.39,0-15,.27-20.7.72a12.5,12.5,0,0,0-5.4,1.26,3.65,3.65,0,0,1-1.71.36,4,4,0,0,1-1.8-.36,29.78,29.78,0,0,1-7.73-4.59,2.67,2.67,0,0,1-1.27-2.16c0-.81.81-1.26,2.43-1.08a79.58,79.58,0,0,0,9.54.63c8.1,0,18.27-.09,25.38-.54,1.17-.09,3.24-1.17,4.23-1.17a39,39,0,0,1,7.83.72c1.35.27,2,1,2,2s-.63,2-1.89,3.24a27.11,27.11,0,0,1-2.52,7.2c2.43.54,3.69,1.53,3.69,3.06s-1.62,2.7-3.87,2.7c-10.53.09-20.43.36-30.33.72a8.73,8.73,0,0,0-.09,1.53v2.7A1.42,1.42,0,0,0,208,46.47c4.14.09,10.62,0,15.12-.27a17,17,0,0,0,6.57-1.35,8.54,8.54,0,0,1,3.51-1.17,32,32,0,0,1,7.2.36,3.09,3.09,0,0,1,2.79,3.24C243.17,49.8,241.28,51.33,238.31,51.42Zm2.25,47.43c-12,0-22.86.09-34.29.27-6.21.09-8.91-2.25-8.91-7.47v-5.4a10.71,10.71,0,0,0-5.31-2.88c-1.26-.36-1.88-.9-1.88-1.8s1-1.8,2.87-1.8a106.25,106.25,0,0,1,10.62.54,7.39,7.39,0,0,1,1.62.27,15.16,15.16,0,0,0,3.69.54c6.39,0,13.5-.18,19.08-.63.45,0,1-.36,1-.72a43.16,43.16,0,0,0,.27-5.31c-6.21-.09-13.5.09-18.9.54a19,19,0,0,0-6.21,1.17,4.4,4.4,0,0,1-1.71.45,4.81,4.81,0,0,1-1.8-.45,33.35,33.35,0,0,1-8.1-4.86,2.37,2.37,0,0,1-1.17-2c0-.81.63-1.08,2.17-.9,3.23.36,6.47.45,10.16.54,8.1.09,16.83-.09,24.39-.54,1.53-.09,2.88-1,4.23-1a34.62,34.62,0,0,1,8.19.9,2,2,0,0,1,1.71,2A3.24,3.24,0,0,1,241,73a3.94,3.94,0,0,0-1.26,1.71,25.37,25.37,0,0,1-1.8,5.4c2.61.63,3.69,1.53,3.69,3.33,0,1.53-1.8,2.7-3.78,2.7-9.81.09-21.24.36-29.61.63a11.48,11.48,0,0,0-.09,1.71v3.06c0,1,.45,1.44,1.26,1.44,4.59.09,10.08.09,14.4-.09,3.33-.18,5.67-.54,7.56-1.62a7.37,7.37,0,0,1,3.6-.9,35.15,35.15,0,0,1,7.2.63c2.43.54,3.69,1.8,3.69,4C245.87,97.41,243.62,98.85,240.56,98.85Z"/></svg>