<svg id="레이어_1" data-name="레이어 1" xmlns="http://www.w3.org/2000/svg" viewBox="0 0 468 212.4"><path d="M85.42,48.51c-3.77-.27-9.08-.54-12.68-.54-12.87,0-28.08.45-38.25,1.35-4.5.36-7.11.81-9.45,2a4,4,0,0,1-1.8.45,6.72,6.72,0,0,1-2.34-.54,38.25,38.25,0,0,1-9.45-5.85C10.37,44.38,10,43.94,10,43s.81-1.26,2.7-.9A83.56,83.56,0,0,0,26.3,43.2c10.08,0,25.92-.36,36.81-.9a119.74,119.74,0,0,0,2.34-20.06,200.05,200.05,0,0,0-21.06.54c-3.87.36-6.39.81-8.37,1.71A5,5,0,0,1,34,25a4.73,4.73,0,0,1-1.8-.45A32.65,32.65,0,0,1,23,19.27a2.76,2.76,0,0,1-1.26-2.16c0-.9.81-1.26,2.61-1.08a95.33,95.33,0,0,0,11.7.72c8.73,0,19.17-.18,27.9-.81a6.71,6.71,0,0,0,2.34-.45,6.78,6.78,0,0,1,2.61-.72,32,32,0,0,1,7.92.9c1.52.36,2.33,1.17,2.33,2.43s-.62,2.07-1.88,3.42a63.82,63.82,0,0,1-7,20.33,12.43,12.43,0,0,0,4.41-1A9.68,9.68,0,0,1,79,39.51a30.76,30.76,0,0,1,8.1,1.08c2.7.63,3.33,1.89,3.33,3.69a4.49,4.49,0,0,1-4.73,4.25ZM73.54,91.09c-12,0-23.3.09-34.73.27-6.21.09-8.91-2.25-8.91-7.47V76.24a10.11,10.11,0,0,0-5.31-2.88q-1.89-.54-1.89-1.89c0-.81.9-1.71,2.79-1.71,3.42,0,7.2.18,10.71.54a7.41,7.41,0,0,1,1.62.27,15.3,15.3,0,0,0,3.69.54c6.39,0,14-.18,19.89-.63a.79.79,0,0,0,.81-.63c.18-1.53.27-5.32.27-7.93-6.21-.09-14.13.09-19.53.54a19.06,19.06,0,0,0-6.21,1.14,4.43,4.43,0,0,1-1.71.45,4.73,4.73,0,0,1-1.8-.45,33.33,33.33,0,0,1-8.1-4.86,2.39,2.39,0,0,1-1.17-2c0-.81.63-1.08,2.16-.9,3.24.36,6.48.54,10.17.63,8.1.09,17.46-.09,25-.63,1.53-.09,2.88-1,4.23-1a34.68,34.68,0,0,1,8.19.9,2,2,0,0,1,1.71,2,3.26,3.26,0,0,1-1.26,2.7,3.83,3.83,0,0,0-1.26,1.71A37,37,0,0,1,71.1,70c2.61.63,3.69,1.62,3.69,3.42s-1.44,2.7-3.42,2.7c-10.71.09-22.23.36-30.6.63a12.25,12.25,0,0,0-.09,1.71v5.4a1.19,1.19,0,0,0,1,1.35,1,1,0,0,0,.35,0c4.68.09,10.44.09,14.76-.09,3.33-.18,5.85-.72,7.56-1.71a7.4,7.4,0,0,1,3.6-.9,34.75,34.75,0,0,1,7.2.63c2.6.54,3.69,1.8,3.69,4.05C78.86,89.74,76.61,91.09,73.54,91.09Z"/><path d="M141,32.25a4.24,4.24,0,0,0-1.08,1.62c-4,5.9-6.21,10-10.52,15.55l3.14,3a12.48,12.48,0,0,0,6.75,3.78,5.49,5.49,0,0,1,3.24,2.16c2.88,3.69,4.23,6.84,4.23,8.91,0,2.61-1.17,4-3.24,4-1.53,0-2.88-.81-4.5-2.43L125.35,54.35c-6.84,7.74-15.21,13.58-24.48,18.8a5.61,5.61,0,0,1-2,.69,1,1,0,0,1-1-1c0-1,.63-1.35,1.53-2.07,11.52-9.27,23-22.84,28.26-37.42a60.69,60.69,0,0,0-10.26.54,15.58,15.58,0,0,0-4.77,1.44,3.09,3.09,0,0,1-1.62.45,4.77,4.77,0,0,1-1.89-.45,30.88,30.88,0,0,1-7.92-4.77,2.21,2.21,0,0,1-1.08-1.8c0-.9.54-1.35,1.8-1.17a72.89,72.89,0,0,0,10.44.63c4.86,0,10.08-.09,15.12-.45,1.35-.09,3.68-1.35,4.41-1.35a38.33,38.33,0,0,1,8.54,1q2.16.41,2.16,1.89A3.89,3.89,0,0,1,141,32.25Zm33.57,19.6c-4.5.09-8.19.27-12.33.45V70.66a100.88,100.88,0,0,1-.63,13c-.36,3.06-2.07,12-6.39,12-2.16,0-3.42-3.51-3.42-13V19.36c-1-2.7-3.87-4.68-6.93-5.76-1.26-.45-1.8-.9-1.8-2,0-1.44,2.34-2.07,4.86-2.07a33.25,33.25,0,0,1,6.66.9,29.23,29.23,0,0,1,5.58,1.62c1.62.72,2.43,1.71,2.43,3.06,0,1.62-.36,4-.36,5.94V46.52l2.79-.27a3.42,3.42,0,0,0,2-.81,6.19,6.19,0,0,1,3.24-1.8,23.32,23.32,0,0,1,6.57.09c2.25.36,3,2,3,3.87-.07,2.81-2.68,4.25-5.29,4.25Z"/><path d="M260.62,55.27c-3.42-.27-8.64-.45-12.42-.45-11.43-.09-28.62.45-38.61,1.35A30.71,30.71,0,0,0,200.5,58a5,5,0,0,1-2,.54,6.71,6.71,0,0,1-2.33-.54,37,37,0,0,1-9.63-5.85c-1.17-1-1.35-1.53-1.35-2.34s.81-1.35,2.7-1a82.48,82.48,0,0,0,13.68,1.08c11.33,0,27.26-.18,39-1,4.05-.27,6.66-.54,8-1.26a9.21,9.21,0,0,1,4.23-1.35,38.67,38.67,0,0,1,9.45,1.26c2.25.54,3.33,1.89,3.33,3.69C265.66,54.1,263.32,55.45,260.62,55.27ZM246.31,44c-9.63.27-23,.72-33.84,1-6.12.18-8.82-2.43-8.82-7.47V33.23a10.91,10.91,0,0,0-5.4-3.15c-1.35-.45-1.79-.9-1.79-1.71,0-1.08,1.52-1.89,3.15-1.89,3.41,0,7.37.09,11,.45l1.44.27a17.12,17.12,0,0,0,3.78.36c6.3,0,13.68-.18,19.53-.63.63-.09,1-.36,1.08-.9a44.29,44.29,0,0,0,.27-5.4c-6.39,0-15,.27-20.7.72a12.47,12.47,0,0,0-5.4,1.26,3.61,3.61,0,0,1-1.71.36,4,4,0,0,1-1.8-.36A29.92,29.92,0,0,1,199.37,18a2.65,2.65,0,0,1-1.27-2.16c0-.81.81-1.26,2.43-1.08a80,80,0,0,0,9.54.63c8.1,0,18.27-.09,25.38-.54,1.17-.09,3.24-1.17,4.23-1.17a39.55,39.55,0,0,1,7.83.72c1.35.27,2,1,2,2s-.63,2-1.89,3.24a27,27,0,0,1-2.52,7.2c2.43.54,3.69,1.53,3.69,3.06s-1.62,2.7-3.87,2.7c-10.53.09-20.43.36-30.33.72a9.82,9.82,0,0,0-.09,1.53v2.7a1.42,1.42,0,0,0,1.3,1.53H216c4.14.09,10.62,0,15.12-.27a17,17,0,0,0,6.57-1.35,8.59,8.59,0,0,1,3.51-1.17,32.13,32.13,0,0,1,7.2.36,3.09,3.09,0,0,1,2.79,3.24C251.17,42.4,249.28,43.93,246.31,44Zm2.25,47.43c-12,0-22.86.09-34.29.27-6.21.09-8.91-2.25-8.91-7.47v-5.4A10.71,10.71,0,0,0,200.05,76c-1.26-.36-1.88-.9-1.88-1.8s1-1.8,2.87-1.8a104.61,104.61,0,0,1,10.62.54,7.41,7.41,0,0,1,1.62.27,15.3,15.3,0,0,0,3.69.54c6.39,0,13.5-.18,19.08-.63.45,0,1-.36,1-.72a42.83,42.83,0,0,0,.27-5.31c-6.21-.09-13.5.09-18.9.54a19.09,19.09,0,0,0-6.21,1.17,4.43,4.43,0,0,1-1.71.45,4.73,4.73,0,0,1-1.8-.45,33.33,33.33,0,0,1-8.1-4.86,2.39,2.39,0,0,1-1.17-2c0-.81.63-1.08,2.17-.9,3.23.36,6.47.45,10.16.54,8.1.09,16.83-.09,24.39-.54,1.53-.09,2.88-1,4.23-1a34.68,34.68,0,0,1,8.19.9,2,2,0,0,1,1.71,2A3.23,3.23,0,0,1,249,65.6a4,4,0,0,0-1.26,1.71,25.76,25.76,0,0,1-1.8,5.4c2.61.63,3.69,1.53,3.69,3.33,0,1.53-1.8,2.7-3.78,2.7-9.81.09-21.24.36-29.61.63a12.25,12.25,0,0,0-.09,1.71v3.06c0,1,.45,1.44,1.26,1.44,4.59.09,10.08.09,14.4-.09,3.33-.18,5.67-.54,7.56-1.62A7.4,7.4,0,0,1,243,83a34.75,34.75,0,0,1,7.2.63c2.43.54,3.69,1.8,3.69,4C253.87,90,251.62,91.45,248.56,91.45Z"/><path d="M85.42,162.6c-3.42-.27-8.63-.45-12.41-.45-11.43-.09-28.62.45-38.61,1.35a30.71,30.71,0,0,0-9.09,1.8,5,5,0,0,1-2,.54A6.72,6.72,0,0,1,21,165.3a37,37,0,0,1-9.63-5.85c-1.17-1-1.35-1.53-1.35-2.34s.81-1.35,2.7-1a82.48,82.48,0,0,0,13.68,1.08c5.58,0,12.24,0,19.08-.18v-6C37,149.6,29.63,144.6,29.63,137c0-8.37,8.82-13.23,18.18-14a1.52,1.52,0,0,0,.54-1.26c0-.54-.27-1-1.17-1.53a1.43,1.43,0,0,1-.9-1.35c0-.63.9-1.26,2.34-1.26a17.55,17.55,0,0,1,6.12,1.17,1.8,1.8,0,0,1,1.44,1.8,4.7,4.7,0,0,1-1.53,2.7c8.46,1.26,15.93,6,15.93,13.68,0,7.38-6.93,12.24-15,13.77v5.94c3.42-.18,6.84-.27,9.9-.54,4-.27,6.66-.54,8-1.26a9.11,9.11,0,0,1,4.21-1.3,38.53,38.53,0,0,1,9.44,1.26c2.25.54,3.33,1.89,3.33,3.69C90.46,161.38,88.12,162.73,85.42,162.6ZM49.34,195.76c-3.87,2.7-10.17,4.86-14.76,5.67a7.54,7.54,0,0,1-6-1.08c-2.61-1.8-3.42-4.14-3.42-7.65v-5.49a10.67,10.67,0,0,0-4.95-2.7c-1.17-.36-1.8-.9-1.8-1.71,0-1.17,1-1.89,3.06-2.07a73.25,73.25,0,0,1,8.64.18,13.38,13.38,0,0,1,3.6.72c1.71.09,3.87,0,4.68-.45a1.49,1.49,0,0,0,.72-1.08,45.41,45.41,0,0,0,0-4.95,37.13,37.13,0,0,0-5.58.18c-1.08.09-3.78,1.26-4.86,1.26a3.79,3.79,0,0,1-1.62-.36,26.62,26.62,0,0,1-6-4.14,2.79,2.79,0,0,1-1.17-2.16c0-.81.81-1.35,2.52-1.08a46,46,0,0,0,6.84.54,86.53,86.53,0,0,0,8.82-.27,11.36,11.36,0,0,0,2.16-.45,5,5,0,0,1,2.16-.63,24.69,24.69,0,0,1,5,.54A7.35,7.35,0,0,1,50,168a58.47,58.47,0,0,1,6.75.36,21.5,21.5,0,0,1,4.5.9,38.7,38.7,0,0,0,5.49-.18c1-.09,2.88-.9,3.87-.9a29.81,29.81,0,0,1,7.11.72,2.21,2.21,0,0,1,1.88,2.34,3.89,3.89,0,0,1-1.08,2.88,2.71,2.71,0,0,0-1,1.44,148.05,148.05,0,0,1-2.61,16.2c2.07.72,3.23,1.71,3.23,3.69s-1.62,3-4.58,2.88c-3.87-.09-7.56-.09-12.24.09-.72,3.06-2.34,4.5-4.32,4.5s-3-2-3.24-6L52,174.52a8.62,8.62,0,0,0-2-1.44,7.74,7.74,0,0,1-.81.81,2.2,2.2,0,0,0-.63,1.08A40.37,40.37,0,0,1,47,181.09c1.71.45,2.7,1.26,2.7,2.7,0,1.62-1.17,2.61-3,2.7-4.32.18-7.92.45-11.79.81a9.82,9.82,0,0,0-.09,1.53v3.42c0,.9.36,1.26,1.62,1.26a54.41,54.41,0,0,0,11.43-1.62,5,5,0,0,1,1.62-.27c1.17,0,1.71.54,1.71,1.35C51.23,194.14,50.6,194.86,49.34,195.76Zm1-66.15c-5.85,0-10.53,3.15-10.53,7.47,0,4.5,4.68,7.2,10.53,7.2S61,141.58,61,137.08c0-4.32-4.6-7.48-10.63-7.48ZM67.8,175.15c-2.07-.09-4,0-6.21.09l.09,16.83a22.9,22.9,0,0,0,4.68-.18,1.29,1.29,0,0,0,1.17-.9Z"/><path d="M144.4,137.8a3.41,3.41,0,0,0-.9,1.53c-6.12,17.46-18.8,32.13-39,43.65a8.4,8.4,0,0,1-2.55.79c-.9,0-1-1-1-1a6.11,6.11,0,0,1,1.93-3c13-10.26,25.11-26.19,28.71-41.22a74.37,74.37,0,0,0-11.16.63,16.3,16.3,0,0,0-4.59,1.26A4.34,4.34,0,0,1,114,141a5.21,5.21,0,0,1-2-.38,31.79,31.79,0,0,1-8-4.68,2.21,2.21,0,0,1-1.08-1.8c0-.9.63-1.35,2-1.17a75.49,75.49,0,0,0,10.08.65c6.66,0,12.15-.18,16.46-.45a5.83,5.83,0,0,0,2.17-.54,4.29,4.29,0,0,1,2.06-.63,40,40,0,0,1,8.46.81q1.89.41,1.89,1.89A3.91,3.91,0,0,1,144.4,137.8Zm23.76-8.73v49.32a100.88,100.88,0,0,1-.63,13c-.36,3.06-2.07,12-6.39,12-2.16,0-3.42-3.51-3.42-13v-63c-1-2.7-3.87-4.68-6.93-5.76-1.26-.45-1.8-.9-1.8-2,0-1.44,2.34-2.07,4.86-2.07a33.25,33.25,0,0,1,6.66.9,29.23,29.23,0,0,1,5.58,1.62c1.62.72,2.43,1.71,2.43,3.06,0,1.64-.36,4-.36,6Z"/><path d="M260.62,165.06c-3.42-.27-8.64-.45-12.42-.45-11.43-.09-28.62.45-38.61,1.35a30.71,30.71,0,0,0-9.09,1.8,5,5,0,0,1-2,.54,6.71,6.71,0,0,1-2.33-.54,37,37,0,0,1-9.63-5.85c-1.17-1-1.35-1.53-1.35-2.34s.81-1.35,2.7-1a82.48,82.48,0,0,0,13.68,1.08c11.33,0,27.26-.18,39-1,4.05-.27,6.66-.54,8-1.26A9.21,9.21,0,0,1,252.8,156a38.67,38.67,0,0,1,9.45,1.26c2.25.54,3.33,1.89,3.33,3.69C265.66,163.89,263.32,165.24,260.62,165.06ZM248.2,150.48c-10.8,0-24,.09-35.37.36-4.32.09-7.2-.72-8.73-2.7-1.26-1.44-1.8-3.6-1.8-6.3l-.09-10c-1.17-1.71-3.14-3-6.11-3.78-1.26-.36-2.08-.9-2.08-1.89,0-1.26,2.88-2.16,5-2.16a73.91,73.91,0,0,1,11.51.81c2,.36,2.79,1.62,2.43,3.87a21.72,21.72,0,0,0-.18,3.42v10.7a2,2,0,0,0,1.71,2.25,2.44,2.44,0,0,0,.54,0c4.68.09,13.95-.09,18.72-.27a9.91,9.91,0,0,0,5-1.44,9.64,9.64,0,0,1,4.32-1.62,28.7,28.7,0,0,1,7.29.36c2.34.45,3.51,1.62,3.51,3.87C253.87,148.77,251.17,150.48,248.2,150.48Zm.27,47.62c-13.32,0-24.57.09-33.84.36-3.87.09-6.48-.54-8-1.89-1.71-1.44-2.52-3.87-2.61-7.11l-.09-8.74c-1.26-1.53-3.77-2.61-6.65-3.24-1.17-.27-1.81-.81-1.81-1.71,0-1.26,3-2.34,5-2.34a71.5,71.5,0,0,1,11.69.81c2,.27,2.79,1.71,2.52,4-.09,1.26-.18,2.43-.18,3.42v8.65a2,2,0,0,0,1.62,2.32,2,2,0,0,0,.54,0c4.23.18,10.26,0,14.58-.27,3.78-.18,5.94-.54,8.28-1.62a13.15,13.15,0,0,1,4.14-1.35,28.3,28.3,0,0,1,7.11.54c2.52.54,3.6,1.71,3.6,4.05C254.32,196.6,251.53,198.1,248.47,198.1Z"/><path d="M329.54,137.08c-1.26,4.59-4.15,9.09-6.49,13.5l5.13,5.58c1.8,2,2.51,2.15,5,3a5.66,5.66,0,0,1,3,2.07,34.52,34.52,0,0,1,4,7.11,8.45,8.45,0,0,1,.63,3.06,3.58,3.58,0,0,1-3.37,3.77h-.14c-1.8,0-3.06-1-4.68-2.88l-13-15.92c-5.4,8.1-13.27,14.76-21.64,20.43-1,.72-3,2-3,2-1,.53-3,1-2-1a11.9,11.9,0,0,1,2-2.25c9-9,19.82-24.67,22.79-38.35a10.31,10.31,0,0,0-4.86-4.68c-1.35-.72-2-1.08-2-2,0-1.08,1.17-1.89,3.51-1.89a11.18,11.18,0,0,1,2.16.18,40.14,40.14,0,0,1,11.61,3.33,2.63,2.63,0,0,1,1.8,2.43A8.17,8.17,0,0,1,329.54,137.08Zm42.11,22.77c-4.5.09-8.19.27-12.33.45v18.36a100.88,100.88,0,0,1-.63,13c-.36,3.06-2.07,12-6.39,12-2.16,0-3.42-3.51-3.42-13V127.36c-1-2.7-3.87-4.68-6.93-5.76-1.26-.45-1.8-.9-1.8-2,0-1.44,2.34-2.07,4.86-2.07a33.25,33.25,0,0,1,6.66.9,29.23,29.23,0,0,1,5.58,1.62c1.62.72,2.43,1.71,2.43,3.06,0,1.62-.36,4-.36,5.94v25.47l2.79-.27a3.42,3.42,0,0,0,2-.81,6.19,6.19,0,0,1,3.24-1.8,23.32,23.32,0,0,1,6.57.09c2.25.36,3,2,3,3.87-.05,2.81-2.66,4.25-5.27,4.25Z"/><path d="M456.07,149.6c-4.32.09-8,.27-12,.45a68.34,68.34,0,0,1-.54,9.27c-1,7.11-3.24,10.17-6.12,10.17-2.43,0-3.69-4.7-3.78-10.91a160.17,160.17,0,0,1-36.36,8.74,10,10,0,0,1-2.78.09c-2.7-.36-4.5-1.89-5.58-4.68a13.2,13.2,0,0,1-.54-4V149.5c-1.08-1.35-3.7-2.25-6.58-3.06-1.17-.36-1.8-.81-1.8-2,0-1,1.89-1.89,3.33-1.89,3.69,0,7.92.09,10.8.36a25.43,25.43,0,0,1,3.88.69,64.19,64.19,0,0,0,11.25-.72,1.06,1.06,0,0,0,1-.9,46.61,46.61,0,0,0,.36-8.18,113.07,113.07,0,0,0-11.34.63,15.34,15.34,0,0,0-4.67,1.17,3.45,3.45,0,0,1-1.71.54,5.18,5.18,0,0,1-2.25-.54,30.43,30.43,0,0,1-7.47-4.32,2.4,2.4,0,0,1-1.17-2.07c0-1,.81-1.44,2.61-1.26,3.15.36,6.21.45,9.72.54a143,143,0,0,0,15.21-.54c1.8-.09,3.15-1.17,4.68-1.35a30.59,30.59,0,0,1,7,.9,2.22,2.22,0,0,1,2,2.25A3.57,3.57,0,0,1,422,132.5a3,3,0,0,0-.72,1,49.46,49.46,0,0,1-3.24,9.17c2.34.63,3.69,1.53,3.69,3.06,0,1.71-1.44,2.79-4,2.88l-19.25,1.17a10.28,10.28,0,0,0-.18,2.07v5.48c0,1.08.63,1.53,1.71,1.53a171.77,171.77,0,0,0,33.66-4V127.54c-.9-2.79-3.69-5-6.93-5.94-1.17-.36-1.71-.9-1.71-2,0-1.44,2.34-2.07,4.86-2.07a32.37,32.37,0,0,1,6.57.9,29.23,29.23,0,0,1,5.58,1.62c1.62.72,2.43,1.71,2.43,3.06,0,1.62-.36,4-.36,5.94v15.12q1.22,0,2.43-.18a3.42,3.42,0,0,0,2-.81,6.19,6.19,0,0,1,3.24-1.8,23.32,23.32,0,0,1,6.57.09c2.25.36,3,2,3,3.87C461.29,148.15,458.68,149.6,456.07,149.6Zm-12.15,28.62a3.12,3.12,0,0,0-.72,1.44,98.61,98.61,0,0,1-2.43,11.79c2.25.72,3.6,1.8,3.6,3.69s-1.62,3.15-4.86,3.06c-8-.09-16.65,0-26.37.27-1,3.42-2.7,5-5,5s-3.6-2.16-4.05-6.57l-1.62-17.28a10,10,0,0,0-5.31-3.06c-1.26-.36-1.89-.9-1.89-1.89s2.07-2.16,3.87-2.16c3,0,6.12.18,9.18.45a14.41,14.41,0,0,1,4.5.9c5.85,0,12.6-.18,18.72-.72.81,0,2.79-.9,3.87-.9a39.77,39.77,0,0,1,8,.81c1.35.27,2.07,1,2.07,2.16a4.35,4.35,0,0,1-1.56,3ZM432.4,179.6c-6.57,0-12.69.18-19.08.54a9.81,9.81,0,0,0-.09,1.71L413.5,192c5.85.09,12.33,0,17.55-.36a1.43,1.43,0,0,0,1.35-.9Z"/></svg>