<svg id="레이어_1" data-name="레이어 1" xmlns="http://www.w3.org/2000/svg" viewBox="0 0 262.4 108.25"><path d="M78.77,59.84c-4.32.09-8,.27-12,.45v18a101.65,101.65,0,0,1-.63,13c-.36,3.06-2.07,12-6.39,12-2.16,0-3.42-3.51-3.42-13v-23c-10,4-25.38,9.29-35.37,10.19-3.24.27-5.67-.09-7-1.17-2.61-2-3.51-4-3.51-8.72V45.76a9.63,9.63,0,0,0-5.85-3.87c-1.71-.45-2.34-1-2.34-1.8,0-1.17,2.16-2.25,4-2.25,7.2,0,12,.54,14,1.8,5.94.09,10-.36,12.5-2.25a7.28,7.28,0,0,1,3-1.08,22.37,22.37,0,0,1,6.93,0c3,.45,3.87,1.89,3.87,4,0,2.43-1.89,4-5,4.14-7,.18-12.23.36-20.33.81a12.85,12.85,0,0,0-.09,2.25V67.48c0,1.17.45,1.8,2,1.8,9.45-.18,23.22-3.71,33.3-6.23V27.26c-1-2.7-3.87-4.68-6.93-5.76-1.26-.45-1.8-.9-1.8-2,0-1.44,2.34-2.07,4.86-2.07a33.18,33.18,0,0,1,6.66.9A29.14,29.14,0,0,1,64.74,20c1.62.72,2.43,1.71,2.43,3.06,0,1.62-.36,4-.36,5.94V54.44a21.89,21.89,0,0,0,2.42-.18,3.41,3.41,0,0,0,2-.81,6.21,6.21,0,0,1,3.24-1.8,23,23,0,0,1,6.57.09c2.25.36,3,2,3,3.87C84,58.4,81.38,59.84,78.77,59.84Z"/><path d="M166.55,59.66c-4.5.09-8.28.18-12.42.45V78.29a101.65,101.65,0,0,1-.63,13c-.36,3.06-2.07,12-6.39,12-2.16,0-3.42-3.51-3.42-13V74.49c-10.26,2.61-18.79,4.18-33.47,6.4a18,18,0,0,0-6,1.44,3.64,3.64,0,0,1-2.16.72,4.17,4.17,0,0,1-1.71-.36A41.89,41.89,0,0,1,89.69,77a2.73,2.73,0,0,1-1.44-2.34c0-1,.9-1.44,2.61-1.26a94.25,94.25,0,0,0,14,.63c2-.09,5-.18,7.12-.27V63.26c-8.55-1.44-14.48-6.47-14.48-15.38,0-9.36,6.83-14.39,15.92-15.38a1.87,1.87,0,0,0,1-1.53c0-.63-.27-1.08-1.08-1.62-.63-.45-.9-.72-.9-1.35,0-.81.9-1.35,2.52-1.35a15.58,15.58,0,0,1,5.67,1.17c1,.45,1.53,1,1.53,1.8a4.75,4.75,0,0,1-1.53,3.06c8.45,1.53,14.38,6.38,14.38,15.2,0,8.46-5.3,13.22-13.12,15.11V73c7.82-.63,14-1.3,21.77-2.61V27.26c-1-2.7-3.87-4.68-6.93-5.76-1.26-.45-1.8-.9-1.8-2,0-1.44,2.34-2.07,4.86-2.07a33.18,33.18,0,0,1,6.66.9A29.14,29.14,0,0,1,152.06,20c1.62.72,2.43,1.71,2.43,3.06,0,1.62-.36,4-.36,5.94V54.35l2.88-.27a3.47,3.47,0,0,0,2-.81,6.21,6.21,0,0,1,3.24-1.8,23,23,0,0,1,6.57.09c2.25.36,3,2,3,3.87C171.77,58.22,169.16,59.66,166.55,59.66Zm-59.65-12c0,5.85,4.22,8.57,9.62,8.57s10-2.33,10-8.18-4.5-8.45-10-8.45S106.9,41.73,106.9,47.67Z"/><path d="M254,59.84c-4.32.09-8,.27-12,.45v18a101.65,101.65,0,0,1-.63,13c-.36,3.06-2.07,12-6.39,12-2.16,0-3.42-3.51-3.42-13v-23c-10,4-25.38,9.29-35.37,10.19-3.24.27-5.67-.09-7-1.17-2.6-2-3.5-4-3.5-8.72V45.76a9.63,9.63,0,0,0-5.85-3.87c-1.71-.45-2.34-1-2.34-1.8,0-1.17,2.16-2.25,4-2.25,7.2,0,12,.54,14,1.8,5.94.09,10-.36,12.5-2.25a7.28,7.28,0,0,1,3-1.08,22.37,22.37,0,0,1,6.93,0c3,.45,3.87,1.89,3.87,4,0,2.43-1.89,4-5,4.14-7,.18-12.23.36-20.33.81a12.85,12.85,0,0,0-.09,2.25V67.48c0,1.17.45,1.8,2,1.8,9.45-.18,23.22-3.71,33.3-6.23V27.26c-1-2.7-3.87-4.68-6.93-5.76-1.26-.45-1.8-.9-1.8-2,0-1.44,2.34-2.07,4.86-2.07a33.18,33.18,0,0,1,6.66.9A29.14,29.14,0,0,1,239.93,20c1.62.72,2.43,1.71,2.43,3.06,0,1.62-.36,4-.36,5.94V54.44a22.07,22.07,0,0,0,2.43-.18,3.47,3.47,0,0,0,2-.81,6.21,6.21,0,0,1,3.24-1.8,23,23,0,0,1,6.57.09c2.25.36,3,2,3,3.87C259.19,58.4,256.58,59.84,254,59.84Z"/></svg>