<svg id="레이어_1" data-name="레이어 1" xmlns="http://www.w3.org/2000/svg" viewBox="0 0 241.54 33.7"><defs><style>.cls-1{fill:#040000;}</style></defs><title>밤은짧아d무제-16</title><path class="cls-1" d="M246.75,15.63V7.26h-8.32V9.71h5.72v3.48h-5.77v8.37h2.8v4.11h-5.82v2.44h14.2V25.67h-5.83V21.56h3.07V19.12h-5.88V15.63Zm-17.63,10h-8.37v2.44h8.37ZM223,17.4a1.82,1.82,0,1,1,1.82,1.82A1.85,1.85,0,0,1,223,17.4m-2.34,0a4.11,4.11,0,0,0,4.16,4.16A4.16,4.16,0,0,0,229,17.4a4.2,4.2,0,0,0-4.22-4.21,4.15,4.15,0,0,0-4.16,4.21m-20.43,8.27v2.44H206V34h2.55V28.11h3.74V34h2.6V25.67Zm8.37-10V13.19h-5.82V7.26h-2.55v14.3h2.55V15.63ZM195,7.26h-2.55v5.93h-3.28V7.26h-2.54v14.3H195Zm-2.55,11.86h-3.28V15.63h3.28Zm-26.05,2.44H169V13.19h-2.55ZM156.17,17.4A1.82,1.82,0,1,1,158,19.22a1.84,1.84,0,0,1-1.82-1.82m-2.34,0A4.11,4.11,0,0,0,158,21.56a4.15,4.15,0,0,0,4.21-4.16A4.19,4.19,0,0,0,158,13.19a4.15,4.15,0,0,0-4.16,4.21M139.42,36.8a1.82,1.82,0,1,1,1.82,1.82,1.84,1.84,0,0,1-1.82-1.82m-2.34,0A4.11,4.11,0,0,0,141.24,41a4.15,4.15,0,0,0,4.21-4.16,4.19,4.19,0,0,0-4.21-4.21,4.15,4.15,0,0,0-4.16,4.21m5.51-16.54H140v5.41h-5.77v2.44h14.15V25.67h-5.78Zm-8.37-4.63h4.58l-3.9,3.9,1.66,1.82,4.68-4.57,4.68,4.63,1.77-1.88-3.95-3.9h4.63V13.19H134.22Zm-20.64,5.93h2.7l4.42-14.3h-8.53V9.65h5.1Zm-4.27-5.93V13.19h-5.82V7.26h-2.55v14.3h2.55V15.63Zm-13.57,0V7.26H87.42V9.71h5.77v3.48H87.37v8.37h8.42V19.12H89.92V15.63Zm-13.31,0V13.19H76.61V7.26H74.06v14.3h2.55V15.63ZM68.86,19.12H63V15.63h5.83V13.19H60.49v8.37h8.37ZM55.55,15.63V13.19H49.72V7.26H47.17v14.3h2.55V15.63ZM43.27,21.56V19.12H37.5V13.19H34.9v8.37ZM30,15.63V13.19H24.14V7.26H21.59v14.3h2.55V15.63ZM8,13.19v2.44h5.82v5.93h2.55V13.19Z" transform="translate(-8.02 -7.26)"/></svg>