<svg id="레이어_1" data-name="레이어 1" xmlns="http://www.w3.org/2000/svg" viewBox="0 0 452.23 180.44"><title>밤은짧아dhgg_logo</title><polygon points="0 14.13 14.12 14.13 14.12 0 28.37 0 28.37 14.13 42.5 14.13 42.5 28.38 0 28.38 0 14.13"/><polygon points="381.73 14.13 395.86 14.13 395.86 0 410.11 0 410.11 14.13 424.23 14.13 424.23 28.38 381.73 28.38 381.73 14.13"/><polygon points="159.05 137.94 159.05 152.06 144.8 152.06 144.8 166.31 159.05 166.31 159.05 180.44 130.68 180.44 130.68 137.94 159.05 137.94"/><polygon points="242.68 137.94 242.68 152.06 228.43 152.06 228.43 166.31 242.68 166.31 242.68 180.44 214.3 180.44 214.3 137.94 242.68 137.94"/><path d="M439,109.93v-.05H396.56V95.63h14.12V81.5h14.25V95.63H439V67.43h13.91V28.33H260.31a21,21,0,1,1-8.8,0H.7V44.72A21,21,0,1,1,.7,55v83H56.35l-.06-27.78H70.54V124.3H84.66V138h60.58V124.4H131.12V110.15h28.37V138h69.42V124.4H214.79V110.15h-42.5V95.9h14.12V81.77h14.25V95.9h14.13v14.25h28.37V138h62.13V110.15H291V96H276.91V81.77H291V67.52H276.91V53.4H291V39.27h14.25v70.88h14.25v14.12h14.12V138H452.93v-28ZM70.41,96H56.29v14.13H42V67.65H56.29V81.77H70.41ZM88.66,42.77H117V71.15H102.79V57H88.66Zm42.5,52.88H88.66V81.4h42.5Zm83.53-24.5H200.44V57H186.35V71.15H172.1V57H158V42.77h56.72ZM333.54,42.77h28.37V71.15H347.66V57H333.54ZM376,96H361.91v14.13H347.66V96H333.54V81.77H376Zm6.77-46.43a21,21,0,1,1,21,21A21,21,0,0,1,382.81,49.59Z" transform="translate(-0.7)"/><path d="M21.27,41.58a8,8,0,1,1-.05,0h.05" transform="translate(-0.7)"/><path d="M256.13,40.58a8,8,0,1,1-.05,0h.05" transform="translate(-0.7)"/><path d="M403.81,41.58a8,8,0,1,1-8.05,8.05,8,8,0,0,1,8.05-8.05" transform="translate(-0.7)"/></svg>