<?xml version="1.0" encoding="utf-8"?>
<!-- Generator: Adobe Illustrator 25.4.1, SVG Export Plug-In . SVG Version: 6.00 Build 0)  -->
<svg version="1.1" id="레이어_1" xmlns="http://www.w3.org/2000/svg" xmlns:xlink="http://www.w3.org/1999/xlink" x="0px"
	 y="0px" viewBox="0 0 33 33" style="enable-background:new 0 0 33 33;" xml:space="preserve">
<style type="text/css">
	.st0{fill:#182C96;}
</style>
<path class="st0" d="M21.9,1.3L21.9,1.3c-1-0.3-2-0.6-3-0.8h-0.1l-1-0.1l0,0h-0.3l0,0c-0.3,0-0.5,0-0.8,0c-8.9-0.1-16.3,7-16.4,16
	s7,16.3,16,16.4s16.3-7,16.4-16C32.7,10,28.4,3.9,22,1.5L21.9,1.3z M16.2,16.2l5,2.9l-2.6,4.4H9.2l4.9-8.5L16.2,16.2z M16.2,15
	l-3.7-2.1l1.5-2.4l7.8,4.5l3.2,1.9l-1.4,2.4l-1.1-0.6l0,0L16.2,15z M26.2,16.4L13.6,9.1l0,0L13.5,9l4.4-7.5c0.3,0,0.6,0,0.9,0.1h0.1
	c0.9,0.2,1.9,0.4,2.8,0.7l0,0c3.7,1.4,6.7,4.1,8.4,7.7L26.2,16.4z M16.5,31.6c-8.3,0-15.1-6.8-15.1-15.1S8.2,1.4,16.5,1.4h0.3
	l-4.7,8l1,0.6l-1.9,3.3l2.1,1.2l-5.8,10h11.7l2.9-4.9l1.9,1.1l1.9-3.3l0.8,0.4l3.9-6.7c0.7,1.7,1,3.6,1,5.4
	C31.6,24.8,24.8,31.6,16.5,31.6z"/>
</svg>
