<svg id="레이어_1" data-name="레이어 1" xmlns="http://www.w3.org/2000/svg" viewBox="0 0 33 33"><defs><style>.cls-1{fill:#fff;}.cls-2{fill:#182c96;}</style></defs><path class="cls-1" d="M21.76,1.73l0,0A16.11,16.11,0,0,0,18.78,1l-.13,0c-.34,0-.67-.08-1-.1h0l-.3,0h0c-.27,0-.54,0-.82,0a15.78,15.78,0,1,0,5.26.93Z"/><path class="cls-2" d="M21.9,1.34h0a17.21,17.21,0,0,0-3-.75l-.14,0-1-.11h0l-.31,0h0c-.28,0-.55,0-.84,0a16.17,16.17,0,1,0,5.4,1ZM16.23,16.17l5,2.86-2.56,4.42H9.23L14.16,15Zm0-1.14-3.68-2.12L14,10.47,21.79,15,25,16.85l-1.41,2.43-1.06-.62h0Zm10,1.38L13.63,9.11h0L13.47,9,17.9,1.47q.45,0,.9.12l.12,0a15,15,0,0,1,2.77.72h0A15,15,0,0,1,30.06,10Z"/></svg>