<svg id="레이어_1" data-name="레이어 1" xmlns="http://www.w3.org/2000/svg" viewBox="0 0 183.2 430.4"><defs><style>.cls-1{fill:#939393;}</style></defs><path class="cls-1" d="M101.23,18.17A62.71,62.71,0,0,1,163.86,80.8V210.93a62.7,62.7,0,0,1-62.63,62.63H81a62.69,62.69,0,0,1-62.62-62.63V80.8A62.7,62.7,0,0,1,81,18.17h20.27m0-14.17H81A76.8,76.8,0,0,0,4.16,80.8V210.93A76.8,76.8,0,0,0,81,287.73h20.27a76.79,76.79,0,0,0,76.8-76.8V80.8A76.79,76.79,0,0,0,101.23,4Z"/><path class="cls-1" d="M91.1,139.62A7.08,7.08,0,0,1,84,132.53V62.67a7.09,7.09,0,1,1,14.17,0v69.86A7.08,7.08,0,0,1,91.1,139.62Z"/><path class="cls-1" d="M91.1,420.09A7.09,7.09,0,0,1,84,413V325.6a7.09,7.09,0,1,1,14.17,0V413A7.09,7.09,0,0,1,91.1,420.09Z"/><path class="cls-1" d="M91.1,427.23a7.05,7.05,0,0,1-5-2.07l-40.95-41a7.09,7.09,0,0,1,10-10L91.1,410.12,127,374.19a7.09,7.09,0,1,1,10,10l-40.95,41A7.07,7.07,0,0,1,91.1,427.23Z"/></svg>